<svg width="400" height="400" viewBox="0 0 400 400" fill="none" xmlns="http://www.w3.org/2000/svg">
<path d="M25 200C25 296.65 103.35 375 200 375C296.65 375 375 296.65 375 200C375 103.35 296.65 25 200 25C103.35 25 25 103.35 25 200Z" fill="white"/>
<path d="M185.901 168.012L164.587 233.154H148.392L134.059 189.044L119.26 233.154H103.158L81.7512 168.012H97.3875L112.093 213.797L127.45 168.012H141.411L156.303 214.17L171.474 168.012H185.901Z" fill="#003B7C"/>
<path d="M194.318 168.012H209.396V220.87H242.065V233.154H194.318V168.012Z" fill="#003B7C"/>
<path d="M281.435 234.271C274.672 234.271 268.56 232.813 263.099 229.897C257.701 226.981 253.451 222.98 250.348 217.893C247.308 212.743 245.788 206.974 245.788 200.583C245.788 194.193 247.308 188.455 250.348 183.367C253.451 178.218 257.701 174.185 263.099 171.27C268.56 168.354 274.672 166.896 281.435 166.896C288.198 166.896 294.279 168.354 299.677 171.27C305.076 174.185 309.326 178.218 312.429 183.367C315.531 188.455 317.082 194.193 317.082 200.583C317.082 206.974 315.531 212.743 312.429 217.893C309.326 222.98 305.076 226.981 299.677 229.897C294.279 232.813 288.198 234.271 281.435 234.271ZM281.435 221.429C285.282 221.429 288.757 220.56 291.859 218.823C294.962 217.024 297.382 214.542 299.119 211.378C300.918 208.214 301.818 204.616 301.818 200.583C301.818 196.551 300.918 192.953 299.119 189.789C297.382 186.624 294.962 184.174 291.859 182.437C288.757 180.638 285.282 179.738 281.435 179.738C277.588 179.738 274.113 180.638 271.011 182.437C267.908 184.174 265.457 186.624 263.658 189.789C261.921 192.953 261.052 196.551 261.052 200.583C261.052 204.616 261.921 208.214 263.658 211.378C265.457 214.542 267.908 217.024 271.011 218.823C274.113 220.56 277.588 221.429 281.435 221.429Z" fill="#EC4A70"/>
</svg>
