<svg width="685" height="270" viewBox="0 0 685 270" fill="none" xmlns="http://www.w3.org/2000/svg">
<g clip-path="url(#clip0)">
<rect width="685" height="269.508" fill="white"/>
<rect opacity="0.25" width="89.8361" height="89.8361" fill="#EC4A70"/>
<line x1="0.280738" y1="1.22714e-08" x2="0.280726" y2="269.508" stroke="#CACACA" stroke-width="0.561475"/>
<line x1="22.7398" y1="1.22714e-08" x2="22.7398" y2="269.508" stroke="#CACACA" stroke-width="0.561475"/>
<line x1="45.1988" y1="1.22714e-08" x2="45.1988" y2="269.508" stroke="#CACACA" stroke-width="0.561475"/>
<line x1="67.6578" y1="1.22714e-08" x2="67.6578" y2="269.508" stroke="#CACACA" stroke-width="0.561475"/>
<line x1="90.1168" y1="1.22714e-08" x2="90.1168" y2="269.508" stroke="#CACACA" stroke-width="0.561475"/>
<line x1="112.576" y1="1.22714e-08" x2="112.576" y2="269.508" stroke="#CACACA" stroke-width="0.561475"/>
<line x1="135.035" y1="1.22714e-08" x2="135.035" y2="269.508" stroke="#CACACA" stroke-width="0.561475"/>
<line x1="157.494" y1="1.22714e-08" x2="157.494" y2="269.508" stroke="#CACACA" stroke-width="0.561475"/>
<line x1="179.953" y1="1.22714e-08" x2="179.953" y2="269.508" stroke="#CACACA" stroke-width="0.561475"/>
<line x1="202.412" y1="1.22714e-08" x2="202.412" y2="269.508" stroke="#CACACA" stroke-width="0.561475"/>
<line x1="224.871" y1="1.22714e-08" x2="224.871" y2="269.508" stroke="#CACACA" stroke-width="0.561475"/>
<line x1="247.33" y1="1.22714e-08" x2="247.33" y2="269.508" stroke="#CACACA" stroke-width="0.561475"/>
<line x1="269.789" y1="1.22714e-08" x2="269.789" y2="269.508" stroke="#CACACA" stroke-width="0.561475"/>
<line x1="292.248" y1="1.22714e-08" x2="292.248" y2="269.508" stroke="#CACACA" stroke-width="0.561475"/>
<line x1="314.707" y1="1.22714e-08" x2="314.707" y2="269.508" stroke="#CACACA" stroke-width="0.561475"/>
<line x1="337.166" y1="1.22714e-08" x2="337.166" y2="269.508" stroke="#CACACA" stroke-width="0.561475"/>
<line x1="359.625" y1="1.22714e-08" x2="359.625" y2="269.508" stroke="#CACACA" stroke-width="0.561475"/>
<line x1="382.084" y1="1.22714e-08" x2="382.084" y2="269.508" stroke="#CACACA" stroke-width="0.561475"/>
<line x1="404.543" y1="1.22714e-08" x2="404.543" y2="269.508" stroke="#CACACA" stroke-width="0.561475"/>
<line x1="427.002" y1="1.22714e-08" x2="427.002" y2="269.508" stroke="#CACACA" stroke-width="0.561475"/>
<line x1="449.461" y1="1.22714e-08" x2="449.461" y2="269.508" stroke="#CACACA" stroke-width="0.561475"/>
<line x1="471.92" y1="1.22714e-08" x2="471.92" y2="269.508" stroke="#CACACA" stroke-width="0.561475"/>
<line x1="494.379" y1="1.22714e-08" x2="494.379" y2="269.508" stroke="#CACACA" stroke-width="0.561475"/>
<line x1="516.838" y1="1.22714e-08" x2="516.838" y2="269.508" stroke="#CACACA" stroke-width="0.561475"/>
<line x1="539.297" y1="1.22714e-08" x2="539.297" y2="269.508" stroke="#CACACA" stroke-width="0.561475"/>
<line x1="561.756" y1="1.22714e-08" x2="561.756" y2="269.508" stroke="#CACACA" stroke-width="0.561475"/>
<line x1="584.215" y1="1.22714e-08" x2="584.215" y2="269.508" stroke="#CACACA" stroke-width="0.561475"/>
<line x1="606.674" y1="1.22714e-08" x2="606.674" y2="269.508" stroke="#CACACA" stroke-width="0.561475"/>
<line x1="629.133" y1="1.22714e-08" x2="629.133" y2="269.508" stroke="#CACACA" stroke-width="0.561475"/>
<line x1="651.592" y1="1.22714e-08" x2="651.592" y2="269.508" stroke="#CACACA" stroke-width="0.561475"/>
<line x1="674.051" y1="1.22714e-08" x2="674.051" y2="269.508" stroke="#CACACA" stroke-width="0.561475"/>
<line x1="685" y1="0.280738" x2="-6.10597e-05" y2="0.280678" stroke="#CACACA" stroke-width="0.561475"/>
<line x1="685" y1="22.7397" x2="-6.10597e-05" y2="22.7397" stroke="#CACACA" stroke-width="0.561475"/>
<line x1="685" y1="45.1988" x2="-6.10597e-05" y2="45.1988" stroke="#CACACA" stroke-width="0.561475"/>
<line x1="685" y1="67.6578" x2="-6.10597e-05" y2="67.6578" stroke="#CACACA" stroke-width="0.561475"/>
<line x1="685" y1="90.1168" x2="-6.10597e-05" y2="90.1167" stroke="#CACACA" stroke-width="0.561475"/>
<line x1="685" y1="112.576" x2="-6.10597e-05" y2="112.576" stroke="#CACACA" stroke-width="0.561475"/>
<line x1="685" y1="135.035" x2="-6.10597e-05" y2="135.035" stroke="#CACACA" stroke-width="0.561475"/>
<line x1="685" y1="157.494" x2="-6.10597e-05" y2="157.494" stroke="#CACACA" stroke-width="0.561475"/>
<line x1="685" y1="179.953" x2="-6.10597e-05" y2="179.953" stroke="#CACACA" stroke-width="0.561475"/>
<line x1="685" y1="202.412" x2="-6.10597e-05" y2="202.412" stroke="#CACACA" stroke-width="0.561475"/>
<line x1="685" y1="224.871" x2="-6.10597e-05" y2="224.871" stroke="#CACACA" stroke-width="0.561475"/>
<line x1="685" y1="247.33" x2="-6.10597e-05" y2="247.33" stroke="#CACACA" stroke-width="0.561475"/>
<line x1="685" y1="269.789" x2="-6.10597e-05" y2="269.789" stroke="#CACACA" stroke-width="0.561475"/>
<path d="M152.665 94.8333L139.807 134.137H130.038L121.391 107.523L112.464 134.137H102.75L89.8361 94.8333H99.2688L108.14 122.458L117.405 94.8333H125.827L134.81 122.683L143.962 94.8333H152.665Z" fill="#003B7C"/>
<path d="M157.674 103.929H166.433V134.137H157.674V103.929ZM162.053 99.7182C160.444 99.7182 159.134 99.2503 158.123 98.3145C157.112 97.3787 156.607 96.2183 156.607 94.8333C156.607 93.4484 157.112 92.288 158.123 91.3522C159.134 90.4164 160.444 89.9485 162.053 89.9485C163.663 89.9485 164.973 90.3977 165.984 91.296C166.994 92.1944 167.5 93.3173 167.5 94.6649C167.5 96.1247 166.994 97.3412 165.984 98.3145C164.973 99.2503 163.663 99.7182 162.053 99.7182Z" fill="#003B7C"/>
<path d="M182.928 107.916C183.976 106.456 185.38 105.352 187.139 104.603C188.936 103.854 190.994 103.48 193.315 103.48V111.565C192.342 111.49 191.687 111.453 191.35 111.453C188.842 111.453 186.877 112.164 185.454 113.587C184.032 114.972 183.321 117.068 183.321 119.875V134.137H174.562V103.929H182.928V107.916Z" fill="#003B7C"/>
<path d="M198.976 94.8333H208.072V126.725H227.78V134.137H198.976V94.8333Z" fill="#003B7C"/>
<path d="M261.615 119.145C261.615 119.258 261.559 120.044 261.447 121.503H238.595C239.006 123.375 239.98 124.854 241.514 125.939C243.049 127.025 244.958 127.567 247.241 127.567C248.813 127.567 250.198 127.343 251.396 126.894C252.631 126.407 253.773 125.658 254.821 124.648L259.481 129.701C256.637 132.958 252.482 134.586 247.017 134.586C243.61 134.586 240.597 133.931 237.977 132.621C235.357 131.273 233.335 129.42 231.913 127.062C230.491 124.704 229.779 122.027 229.779 119.033C229.779 116.076 230.472 113.418 231.857 111.06C233.279 108.664 235.207 106.811 237.64 105.501C240.111 104.154 242.862 103.48 245.894 103.48C248.851 103.48 251.527 104.116 253.923 105.389C256.319 106.662 258.19 108.496 259.538 110.892C260.923 113.25 261.615 116.001 261.615 119.145ZM245.95 110.105C243.966 110.105 242.3 110.667 240.953 111.79C239.605 112.913 238.782 114.448 238.482 116.394H253.361C253.062 114.485 252.238 112.969 250.891 111.846C249.543 110.686 247.896 110.105 245.95 110.105Z" fill="#003B7C"/>
<path d="M275.813 107.916C276.861 106.456 278.264 105.352 280.024 104.603C281.82 103.854 283.879 103.48 286.2 103.48V111.565C285.227 111.49 284.572 111.453 284.235 111.453C281.727 111.453 279.762 112.164 278.339 113.587C276.917 114.972 276.206 117.068 276.206 119.875V134.137H267.447V103.929H275.813V107.916Z" fill="#003B7C"/>
<path d="M309.768 103.48C313.511 103.48 316.525 104.603 318.808 106.849C321.129 109.095 322.289 112.426 322.289 116.843V134.137H313.53V118.191C313.53 115.795 313.006 114.017 311.958 112.857C310.91 111.659 309.394 111.06 307.41 111.06C305.202 111.06 303.442 111.752 302.132 113.137C300.822 114.485 300.167 116.506 300.167 119.201V134.137H291.408V103.929H299.774V107.467C300.934 106.194 302.375 105.221 304.097 104.547C305.819 103.836 307.709 103.48 309.768 103.48Z" fill="#003B7C"/>
<path d="M360.147 119.145C360.147 119.258 360.091 120.044 359.979 121.503H337.127C337.539 123.375 338.512 124.854 340.047 125.939C341.581 127.025 343.49 127.567 345.774 127.567C347.346 127.567 348.731 127.343 349.929 126.894C351.164 126.407 352.305 125.658 353.354 124.648L358.014 129.701C355.169 132.958 351.014 134.586 345.549 134.586C342.143 134.586 339.13 133.931 336.509 132.621C333.889 131.273 331.868 129.42 330.445 127.062C329.023 124.704 328.312 122.027 328.312 119.033C328.312 116.076 329.004 113.418 330.389 111.06C331.812 108.664 333.739 106.811 336.172 105.501C338.643 104.154 341.394 103.48 344.426 103.48C347.383 103.48 350.06 104.116 352.455 105.389C354.851 106.662 356.722 108.496 358.07 110.892C359.455 113.25 360.147 116.001 360.147 119.145ZM344.482 110.105C342.498 110.105 340.833 110.667 339.485 111.79C338.138 112.913 337.314 114.448 337.015 116.394H351.894C351.594 114.485 350.771 112.969 349.423 111.846C348.076 110.686 346.429 110.105 344.482 110.105Z" fill="#003B7C"/>
<path d="M384.339 103.48C388.082 103.48 391.096 104.603 393.379 106.849C395.7 109.095 396.86 112.426 396.86 116.843V134.137H388.101V118.191C388.101 115.795 387.577 114.017 386.529 112.857C385.481 111.659 383.965 111.06 381.981 111.06C379.772 111.06 378.013 111.752 376.703 113.137C375.393 114.485 374.738 116.506 374.738 119.201V134.137H365.979V103.929H374.345V107.467C375.505 106.194 376.946 105.221 378.668 104.547C380.39 103.836 382.28 103.48 384.339 103.48Z" fill="#003B7C"/>
<path d="M425.102 134.698C421.022 134.698 417.335 133.818 414.041 132.059C410.785 130.3 408.221 127.885 406.349 124.816C404.515 121.709 403.598 118.228 403.598 114.373C403.598 110.517 404.515 107.055 406.349 103.985C408.221 100.878 410.785 98.4454 414.041 96.6861C417.335 94.9268 421.022 94.0471 425.102 94.0471C429.182 94.0471 432.851 94.9268 436.107 96.6861C439.364 98.4454 441.928 100.878 443.799 103.985C445.671 107.055 446.607 110.517 446.607 114.373C446.607 118.228 445.671 121.709 443.799 124.816C441.928 127.885 439.364 130.3 436.107 132.059C432.851 133.818 429.182 134.698 425.102 134.698ZM425.102 126.95C427.423 126.95 429.519 126.426 431.391 125.377C433.262 124.292 434.722 122.795 435.77 120.886C436.856 118.977 437.399 116.806 437.399 114.373C437.399 111.939 436.856 109.768 435.77 107.859C434.722 105.95 433.262 104.472 431.391 103.424C429.519 102.338 427.423 101.795 425.102 101.795C422.782 101.795 420.685 102.338 418.814 103.424C416.942 104.472 415.464 105.95 414.378 107.859C413.33 109.768 412.806 111.939 412.806 114.373C412.806 116.806 413.33 118.977 414.378 120.886C415.464 122.795 416.942 124.292 418.814 125.377C420.685 126.426 422.782 126.95 425.102 126.95Z" fill="#EC4A70"/>
<path d="M471.185 103.368C474.929 103.368 477.942 104.491 480.225 106.736C482.546 108.982 483.706 112.314 483.706 116.731V134.024H474.947V118.078C474.947 115.683 474.423 113.905 473.375 112.744C472.327 111.546 470.811 110.948 468.827 110.948C466.619 110.948 464.859 111.64 463.549 113.025C462.239 114.373 461.584 116.394 461.584 119.089V134.024H452.825V103.817H461.191V107.354C462.351 106.081 463.793 105.108 465.514 104.434C467.236 103.723 469.127 103.368 471.185 103.368Z" fill="#EC4A70"/>
<path d="M491.646 92.3627H500.405V134.024H491.646V92.3627Z" fill="#EC4A70"/>
<path d="M508.534 103.817H517.293V134.024H508.534V103.817ZM512.914 99.6057C511.304 99.6057 509.994 99.1378 508.983 98.202C507.973 97.2663 507.467 96.1059 507.467 94.7209C507.467 93.3359 507.973 92.1755 508.983 91.2398C509.994 90.304 511.304 89.8361 512.914 89.8361C514.523 89.8361 515.833 90.2852 516.844 91.1836C517.855 92.082 518.36 93.2049 518.36 94.5525C518.36 96.0123 517.855 97.2288 516.844 98.202C515.833 99.1378 514.523 99.6057 512.914 99.6057Z" fill="#EC4A70"/>
<path d="M543.782 103.368C547.526 103.368 550.539 104.491 552.822 106.736C555.143 108.982 556.303 112.314 556.303 116.731V134.024H547.544V118.078C547.544 115.683 547.02 113.905 545.972 112.744C544.924 111.546 543.408 110.948 541.424 110.948C539.216 110.948 537.456 111.64 536.146 113.025C534.836 114.373 534.181 116.394 534.181 119.089V134.024H525.422V103.817H533.788V107.354C534.948 106.081 536.39 105.108 538.111 104.434C539.833 103.723 541.724 103.368 543.782 103.368Z" fill="#EC4A70"/>
<path d="M594.162 119.033C594.162 119.145 594.105 119.931 593.993 121.391H571.141C571.553 123.263 572.526 124.741 574.061 125.827C575.596 126.912 577.505 127.455 579.788 127.455C581.36 127.455 582.745 127.23 583.943 126.781C585.178 126.295 586.32 125.546 587.368 124.535L592.028 129.589C589.183 132.845 585.028 134.473 579.563 134.473C576.157 134.473 573.144 133.818 570.524 132.508C567.903 131.161 565.882 129.308 564.46 126.95C563.037 124.591 562.326 121.915 562.326 118.92C562.326 115.963 563.018 113.306 564.403 110.948C565.826 108.552 567.754 106.699 570.187 105.389C572.657 104.041 575.408 103.368 578.44 103.368C581.397 103.368 584.074 104.004 586.469 105.277C588.865 106.549 590.737 108.383 592.084 110.779C593.469 113.137 594.162 115.889 594.162 119.033ZM578.496 109.993C576.513 109.993 574.847 110.555 573.499 111.677C572.152 112.8 571.328 114.335 571.029 116.282H585.908C585.609 114.373 584.785 112.857 583.437 111.734C582.09 110.573 580.443 109.993 578.496 109.993Z" fill="#EC4A70"/>
<path d="M203.941 160.388V165.009H212.052V168.256H203.941V174.626H199.885V157.141H213.128V160.388H203.941Z" fill="black"/>
<path d="M219.084 162.961C219.551 162.311 220.177 161.82 220.961 161.487C221.762 161.154 222.68 160.987 223.715 160.987V164.584C223.281 164.551 222.989 164.535 222.839 164.535C221.721 164.535 220.844 164.851 220.21 165.484C219.576 166.1 219.259 167.032 219.259 168.281V174.626H215.354V161.187H219.084V162.961Z" fill="black"/>
<path d="M239.108 167.957C239.108 168.007 239.083 168.356 239.033 169.006H228.844C229.027 169.839 229.461 170.496 230.146 170.979C230.83 171.462 231.681 171.704 232.699 171.704C233.4 171.704 234.017 171.604 234.551 171.404C235.102 171.187 235.611 170.854 236.079 170.405L238.156 172.653C236.888 174.102 235.035 174.826 232.599 174.826C231.08 174.826 229.737 174.535 228.568 173.952C227.4 173.352 226.499 172.528 225.865 171.479C225.231 170.43 224.914 169.239 224.914 167.907C224.914 166.591 225.222 165.409 225.84 164.36C226.474 163.294 227.333 162.47 228.418 161.887C229.52 161.287 230.746 160.987 232.098 160.987C233.417 160.987 234.61 161.27 235.678 161.837C236.746 162.403 237.581 163.219 238.181 164.285C238.799 165.334 239.108 166.558 239.108 167.957ZM232.123 163.935C231.239 163.935 230.496 164.185 229.895 164.684C229.294 165.184 228.927 165.867 228.794 166.733H235.428C235.294 165.883 234.927 165.209 234.326 164.709C233.725 164.193 232.991 163.935 232.123 163.935Z" fill="black"/>
<path d="M241.708 161.187H245.613V174.626H241.708V161.187ZM243.66 159.314C242.943 159.314 242.358 159.106 241.908 158.689C241.457 158.273 241.232 157.757 241.232 157.141C241.232 156.524 241.457 156.008 241.908 155.592C242.358 155.175 242.943 154.967 243.66 154.967C244.378 154.967 244.962 155.167 245.413 155.567C245.863 155.966 246.089 156.466 246.089 157.066C246.089 157.715 245.863 158.256 245.413 158.689C244.962 159.106 244.378 159.314 243.66 159.314Z" fill="black"/>
<path d="M262.43 167.957C262.43 168.007 262.405 168.356 262.355 169.006H252.166C252.35 169.839 252.784 170.496 253.468 170.979C254.152 171.462 255.003 171.704 256.021 171.704C256.722 171.704 257.34 171.604 257.874 171.404C258.425 171.187 258.934 170.854 259.401 170.405L261.479 172.653C260.21 174.102 258.358 174.826 255.921 174.826C254.403 174.826 253.059 174.535 251.891 173.952C250.723 173.352 249.821 172.528 249.187 171.479C248.553 170.43 248.236 169.239 248.236 167.907C248.236 166.591 248.545 165.409 249.162 164.36C249.796 163.294 250.656 162.47 251.741 161.887C252.842 161.287 254.069 160.987 255.421 160.987C256.739 160.987 257.932 161.27 259 161.837C260.069 162.403 260.903 163.219 261.504 164.285C262.121 165.334 262.43 166.558 262.43 167.957ZM255.446 163.935C254.561 163.935 253.818 164.185 253.218 164.684C252.617 165.184 252.25 165.867 252.116 166.733H258.75C258.617 165.883 258.249 165.209 257.649 164.709C257.048 164.193 256.313 163.935 255.446 163.935Z" fill="black"/>
<path d="M285.262 165.534C286.264 165.85 287.048 166.383 287.616 167.132C288.183 167.865 288.467 168.773 288.467 169.855C288.467 171.387 287.866 172.57 286.664 173.402C285.479 174.218 283.744 174.626 281.457 174.626H272.395V157.141H280.957C283.093 157.141 284.728 157.549 285.863 158.365C287.015 159.181 287.591 160.288 287.591 161.687C287.591 162.536 287.382 163.294 286.965 163.96C286.564 164.626 285.997 165.151 285.262 165.534ZM276.425 160.188V164.31H280.456C281.457 164.31 282.217 164.135 282.734 163.785C283.251 163.435 283.51 162.919 283.51 162.236C283.51 161.554 283.251 161.046 282.734 160.713C282.217 160.363 281.457 160.188 280.456 160.188H276.425ZM281.157 171.579C282.225 171.579 283.026 171.404 283.56 171.054C284.111 170.704 284.386 170.163 284.386 169.431C284.386 167.982 283.31 167.257 281.157 167.257H276.425V171.579H281.157Z" fill="black"/>
<path d="M291.262 161.187H295.167V174.626H291.262V161.187ZM293.214 159.314C292.497 159.314 291.913 159.106 291.462 158.689C291.011 158.273 290.786 157.757 290.786 157.141C290.786 156.524 291.011 156.008 291.462 155.592C291.913 155.175 292.497 154.967 293.214 154.967C293.932 154.967 294.516 155.167 294.967 155.567C295.417 155.966 295.643 156.466 295.643 157.066C295.643 157.715 295.417 158.256 294.967 158.689C294.516 159.106 293.932 159.314 293.214 159.314Z" fill="black"/>
<path d="M298.791 156.091H302.697V174.626H298.791V156.091Z" fill="black"/>
<path d="M320.04 156.091V174.626H316.309V173.078C315.342 174.243 313.94 174.826 312.104 174.826C310.835 174.826 309.684 174.543 308.649 173.977C307.631 173.411 306.83 172.603 306.246 171.554C305.662 170.505 305.37 169.289 305.37 167.907C305.37 166.525 305.662 165.309 306.246 164.26C306.83 163.211 307.631 162.403 308.649 161.837C309.684 161.27 310.835 160.987 312.104 160.987C313.823 160.987 315.166 161.529 316.134 162.611V156.091H320.04ZM312.78 171.629C313.764 171.629 314.582 171.296 315.233 170.63C315.884 169.947 316.209 169.039 316.209 167.907C316.209 166.774 315.884 165.875 315.233 165.209C314.582 164.526 313.764 164.185 312.78 164.185C311.778 164.185 310.952 164.526 310.301 165.209C309.651 165.875 309.325 166.774 309.325 167.907C309.325 169.039 309.651 169.947 310.301 170.63C310.952 171.296 311.778 171.629 312.78 171.629Z" fill="black"/>
<path d="M337.222 161.187V174.626H333.517V173.028C333 173.61 332.382 174.06 331.665 174.377C330.947 174.676 330.171 174.826 329.337 174.826C327.568 174.826 326.166 174.318 325.131 173.302C324.096 172.287 323.579 170.779 323.579 168.781V161.187H327.484V168.207C327.484 170.371 328.394 171.454 330.213 171.454C331.147 171.454 331.898 171.154 332.466 170.555C333.033 169.938 333.317 169.031 333.317 167.832V161.187H337.222Z" fill="black"/>
<path d="M349.026 160.987C350.695 160.987 352.039 161.487 353.057 162.486C354.091 163.485 354.609 164.967 354.609 166.933V174.626H350.703V167.532C350.703 166.466 350.47 165.675 350.003 165.159C349.535 164.626 348.859 164.36 347.975 164.36C346.99 164.36 346.206 164.668 345.622 165.284C345.037 165.883 344.745 166.783 344.745 167.982V174.626H340.84V161.187H344.57V162.761C345.088 162.195 345.73 161.762 346.498 161.462C347.266 161.146 348.108 160.987 349.026 160.987Z" fill="black"/>
<path d="M372.189 161.187V172.378C372.189 174.843 371.547 176.675 370.261 177.874C368.976 179.073 367.099 179.672 364.629 179.672C363.327 179.672 362.092 179.514 360.924 179.198C359.756 178.881 358.788 178.423 358.02 177.824L359.572 175.026C360.139 175.492 360.857 175.859 361.725 176.125C362.593 176.408 363.461 176.55 364.328 176.55C365.68 176.55 366.673 176.242 367.307 175.625C367.958 175.026 368.284 174.11 368.284 172.878V172.303C367.266 173.419 365.847 173.977 364.028 173.977C362.793 173.977 361.658 173.71 360.623 173.177C359.605 172.628 358.796 171.862 358.195 170.879C357.594 169.897 357.294 168.764 357.294 167.482C357.294 166.2 357.594 165.067 358.195 164.085C358.796 163.102 359.605 162.345 360.623 161.812C361.658 161.262 362.793 160.987 364.028 160.987C365.981 160.987 367.466 161.629 368.484 162.911V161.187H372.189ZM364.804 170.779C365.839 170.779 366.682 170.48 367.333 169.88C368 169.264 368.334 168.465 368.334 167.482C368.334 166.5 368 165.709 367.333 165.109C366.682 164.493 365.839 164.185 364.804 164.185C363.769 164.185 362.918 164.493 362.251 165.109C361.583 165.709 361.249 166.5 361.249 167.482C361.249 168.465 361.583 169.264 362.251 169.88C362.918 170.48 363.769 170.779 364.804 170.779Z" fill="black"/>
<path d="M394.003 171.629V174.626H381.987V172.278L388.846 164.185H382.162V161.187H393.778V163.535L386.919 171.629H394.003Z" fill="black"/>
<path d="M410.074 161.187V174.626H406.369V173.028C405.852 173.61 405.234 174.06 404.517 174.377C403.799 174.676 403.023 174.826 402.189 174.826C400.42 174.826 399.018 174.318 397.983 173.302C396.948 172.287 396.431 170.779 396.431 168.781V161.187H400.336V168.207C400.336 170.371 401.246 171.454 403.065 171.454C403.999 171.454 404.75 171.154 405.318 170.555C405.885 169.938 406.169 169.031 406.169 167.832V161.187H410.074Z" fill="black"/>
<path d="M430.94 160.987C432.626 160.987 433.961 161.487 434.946 162.486C435.947 163.469 436.448 164.951 436.448 166.933V174.626H432.543V167.532C432.543 166.466 432.317 165.675 431.867 165.159C431.433 164.626 430.807 164.36 429.989 164.36C429.071 164.36 428.345 164.659 427.811 165.259C427.277 165.842 427.01 166.716 427.01 167.882V174.626H423.105V167.532C423.105 165.417 422.254 164.36 420.551 164.36C419.65 164.36 418.933 164.659 418.399 165.259C417.865 165.842 417.597 166.716 417.597 167.882V174.626H413.692V161.187H417.422V162.736C417.923 162.17 418.532 161.737 419.25 161.437C419.984 161.137 420.785 160.987 421.653 160.987C422.604 160.987 423.464 161.179 424.231 161.562C424.999 161.928 425.617 162.47 426.084 163.186C426.635 162.486 427.327 161.945 428.162 161.562C429.013 161.179 429.939 160.987 430.94 160.987Z" fill="black"/>
<path d="M463.26 174.626L463.235 164.135L458.078 172.778H456.25L451.118 164.36V174.626H447.313V157.141H450.668L457.227 168.007L463.685 157.141H467.015L467.065 174.626H463.26Z" fill="black"/>
<path d="M470.947 161.187H474.852V174.626H470.947V161.187ZM472.9 159.314C472.182 159.314 471.598 159.106 471.147 158.689C470.697 158.273 470.471 157.757 470.471 157.141C470.471 156.524 470.697 156.008 471.147 155.592C471.598 155.175 472.182 154.967 472.9 154.967C473.617 154.967 474.201 155.167 474.652 155.567C475.103 155.966 475.328 156.466 475.328 157.066C475.328 157.715 475.103 158.256 474.652 158.689C474.201 159.106 473.617 159.314 472.9 159.314Z" fill="black"/>
<path d="M487.163 173.977C486.78 174.26 486.304 174.476 485.737 174.626C485.186 174.76 484.602 174.826 483.984 174.826C482.382 174.826 481.139 174.418 480.254 173.602C479.386 172.786 478.952 171.587 478.952 170.005V164.485H476.875V161.487H478.952V158.215H482.858V161.487H486.212V164.485H482.858V169.955C482.858 170.521 483 170.963 483.283 171.279C483.584 171.579 484.001 171.729 484.535 171.729C485.152 171.729 485.678 171.562 486.112 171.229L487.163 173.977Z" fill="black"/>
<path d="M506.604 160.987C508.29 160.987 509.625 161.487 510.609 162.486C511.611 163.469 512.111 164.951 512.111 166.933V174.626H508.206V167.532C508.206 166.466 507.981 165.675 507.53 165.159C507.096 164.626 506.47 164.36 505.653 164.36C504.735 164.36 504.009 164.659 503.475 165.259C502.941 165.842 502.674 166.716 502.674 167.882V174.626H498.768V167.532C498.768 165.417 497.917 164.36 496.215 164.36C495.314 164.36 494.596 164.659 494.062 165.259C493.528 165.842 493.261 166.716 493.261 167.882V174.626H489.356V161.187H493.086V162.736C493.586 162.17 494.196 161.737 494.913 161.437C495.648 161.137 496.449 160.987 497.316 160.987C498.268 160.987 499.127 161.179 499.895 161.562C500.663 161.928 501.28 162.47 501.747 163.186C502.298 162.486 502.991 161.945 503.825 161.562C504.676 161.179 505.603 160.987 506.604 160.987Z" fill="black"/>
<path d="M521.044 160.987C523.13 160.987 524.732 161.487 525.851 162.486C526.969 163.469 527.528 164.959 527.528 166.958V174.626H523.873V172.953C523.139 174.202 521.77 174.826 519.767 174.826C518.733 174.826 517.831 174.651 517.064 174.302C516.313 173.952 515.737 173.469 515.336 172.853C514.936 172.237 514.736 171.537 514.736 170.754C514.736 169.505 515.203 168.523 516.137 167.807C517.089 167.091 518.549 166.733 520.518 166.733H523.623C523.623 165.883 523.364 165.234 522.847 164.784C522.329 164.318 521.553 164.085 520.518 164.085C519.801 164.085 519.091 164.201 518.391 164.435C517.706 164.651 517.122 164.951 516.638 165.334L515.236 162.611C515.971 162.095 516.847 161.695 517.865 161.412C518.9 161.129 519.959 160.987 521.044 160.987ZM520.744 172.203C521.411 172.203 522.004 172.053 522.521 171.754C523.038 171.437 523.406 170.979 523.623 170.38V169.006H520.944C519.342 169.006 518.541 169.53 518.541 170.58C518.541 171.079 518.733 171.479 519.116 171.779C519.517 172.062 520.059 172.203 520.744 172.203Z" fill="black"/>
<path d="M537.718 174.826C536.282 174.826 534.989 174.535 533.837 173.952C532.703 173.352 531.81 172.528 531.159 171.479C530.525 170.43 530.208 169.239 530.208 167.907C530.208 166.575 530.525 165.384 531.159 164.335C531.81 163.286 532.703 162.47 533.837 161.887C534.989 161.287 536.282 160.987 537.718 160.987C539.136 160.987 540.371 161.287 541.423 161.887C542.491 162.47 543.267 163.311 543.751 164.41L540.722 166.033C540.021 164.801 539.011 164.185 537.693 164.185C536.675 164.185 535.832 164.518 535.164 165.184C534.497 165.85 534.163 166.758 534.163 167.907C534.163 169.056 534.497 169.963 535.164 170.63C535.832 171.296 536.675 171.629 537.693 171.629C539.028 171.629 540.038 171.013 540.722 169.78L543.751 171.429C543.267 172.495 542.491 173.327 541.423 173.927C540.371 174.526 539.136 174.826 537.718 174.826Z" fill="black"/>
<path d="M554.088 160.987C555.757 160.987 557.1 161.487 558.118 162.486C559.153 163.485 559.67 164.967 559.67 166.933V174.626H555.765V167.532C555.765 166.466 555.531 165.675 555.064 165.159C554.597 164.626 553.921 164.36 553.036 164.36C552.052 164.36 551.267 164.668 550.683 165.284C550.099 165.883 549.807 166.783 549.807 167.982V174.626H545.902V156.091H549.807V162.586C550.324 162.07 550.95 161.678 551.684 161.412C552.419 161.129 553.22 160.987 554.088 160.987Z" fill="black"/>
<path d="M576.55 167.957C576.55 168.007 576.524 168.356 576.474 169.006H566.286C566.469 169.839 566.903 170.496 567.587 170.979C568.272 171.462 569.123 171.704 570.141 171.704C570.842 171.704 571.459 171.604 571.993 171.404C572.544 171.187 573.053 170.854 573.52 170.405L575.598 172.653C574.33 174.102 572.477 174.826 570.041 174.826C568.522 174.826 567.179 174.535 566.01 173.952C564.842 173.352 563.941 172.528 563.307 171.479C562.673 170.43 562.355 169.239 562.355 167.907C562.355 166.591 562.664 165.409 563.282 164.36C563.916 163.294 564.775 162.47 565.86 161.887C566.962 161.287 568.188 160.987 569.54 160.987C570.859 160.987 572.052 161.27 573.12 161.837C574.188 162.403 575.022 163.219 575.623 164.285C576.241 165.334 576.55 166.558 576.55 167.957ZM569.565 163.935C568.681 163.935 567.938 164.185 567.337 164.684C566.736 165.184 566.369 165.867 566.236 166.733H572.87C572.736 165.883 572.369 165.209 571.768 164.709C571.167 164.193 570.433 163.935 569.565 163.935Z" fill="black"/>
<path d="M587.336 160.987C589.004 160.987 590.348 161.487 591.366 162.486C592.401 163.485 592.918 164.967 592.918 166.933V174.626H589.013V167.532C589.013 166.466 588.779 165.675 588.312 165.159C587.845 164.626 587.169 164.36 586.284 164.36C585.299 164.36 584.515 164.668 583.931 165.284C583.347 165.883 583.055 166.783 583.055 167.982V174.626H579.15V161.187H582.88V162.761C583.397 162.195 584.039 161.762 584.807 161.462C585.575 161.146 586.418 160.987 587.336 160.987Z" fill="black"/>
</g>
<defs>
<clipPath id="clip0">
<rect width="685" height="269.508" fill="white"/>
</clipPath>
</defs>
</svg>
