<svg width="448" height="210" viewBox="0 0 448 210" fill="none" xmlns="http://www.w3.org/2000/svg">
<g filter="url(#filter0_d)">
<rect width="417.916" height="180" transform="translate(15 15)" fill="white"/>
<path d="M107.402 134.738C105.306 134.738 103.559 134.127 102.162 132.904C100.764 131.681 99.8908 130.051 99.5415 128.013C97.1543 130.342 95.0582 132.089 93.2533 133.253C91.4483 134.418 89.2649 135 86.7031 135C83.5007 135 80.7351 134.098 78.4061 132.293C76.1354 130.429 75 127.693 75 124.083C75 122.394 75.3785 120.822 76.1354 119.367C76.9505 117.911 78.4061 116.485 80.5022 115.087C82.5983 113.69 85.5968 112.293 89.4978 110.895C90.837 110.429 92.3799 109.934 94.1266 109.41C95.8734 108.886 97.6201 108.421 99.3668 108.013V105.83C99.3668 101.579 98.7263 98.7555 97.4454 97.3581C96.1645 95.9607 94.0684 95.262 91.1572 95.262C90.5167 95.262 89.7889 95.2911 88.9738 95.3493C88.2169 95.4076 87.3726 95.5531 86.441 95.786L84.7817 101.463C83.9665 104.258 82.4527 105.655 80.2402 105.655C77.7948 105.655 76.4265 104.461 76.1354 102.074C76.9505 98.7555 78.8719 96.1354 81.8996 94.214C84.9854 92.2344 88.7409 91.2445 93.1659 91.2445C97.7656 91.2445 101.172 92.409 103.384 94.738C105.597 97.0087 106.703 100.91 106.703 106.441V125.044C106.703 126.907 106.994 128.246 107.576 129.061C108.159 129.818 108.916 130.197 109.847 130.197C110.604 130.197 111.245 130.022 111.769 129.672C112.293 129.323 112.787 128.857 113.253 128.275L115 130.197C113.952 131.885 112.787 133.079 111.507 133.777C110.284 134.418 108.916 134.738 107.402 134.738ZM82.7729 122.773C82.7729 125.102 83.4425 126.761 84.7817 127.751C86.1208 128.741 87.7802 129.236 89.7598 129.236C90.6332 129.236 91.4483 129.119 92.2052 128.886C93.0204 128.654 93.9811 128.217 95.0873 127.576C96.1936 126.878 97.6201 125.888 99.3668 124.607V111.245C97.853 111.652 96.3683 112.118 94.9127 112.642C93.4571 113.108 92.2635 113.515 91.3319 113.865C88.8282 114.854 86.9651 115.873 85.7424 116.921C84.5197 117.969 83.7045 118.988 83.2969 119.978C82.9476 120.968 82.7729 121.9 82.7729 122.773Z" fill="black"/>
<path d="M143.345 84.7817L134.524 110.808H152.079L143.345 84.7817ZM116.795 133.865V130.284L124.131 129.148L142.734 75H148.236L166.839 129.498L173.389 130.284V133.865H149.634V130.284L158.193 129.236L153.389 114.913H133.127L128.236 129.148L136.795 130.284V133.865H116.795Z" fill="black"/>
<path d="M208.069 135C207.173 135 206.309 134.88 205.477 134.64C204.645 134.384 203.949 134.08 203.389 133.728L203.533 130.368H205.021L205.501 133.2C205.869 133.408 206.245 133.56 206.629 133.656C207.029 133.752 207.485 133.8 207.997 133.8C209.133 133.8 210.037 133.552 210.709 133.056C211.381 132.544 211.717 131.824 211.717 130.896C211.717 130.128 211.477 129.536 210.997 129.12C210.533 128.688 209.789 128.272 208.765 127.872L207.829 127.488C206.597 127.008 205.597 126.392 204.829 125.64C204.077 124.872 203.701 123.88 203.701 122.664C203.701 121.736 203.933 120.944 204.397 120.288C204.877 119.632 205.525 119.128 206.341 118.776C207.157 118.408 208.077 118.224 209.101 118.224C209.901 118.224 210.629 118.336 211.285 118.56C211.941 118.784 212.525 119.088 213.037 119.472L212.893 122.616H211.429L210.925 119.904C210.333 119.584 209.677 119.424 208.957 119.424C208.045 119.424 207.277 119.656 206.653 120.12C206.029 120.568 205.717 121.24 205.717 122.136C205.717 122.872 205.949 123.48 206.413 123.96C206.893 124.44 207.565 124.848 208.429 125.184L209.389 125.544C210.957 126.152 212.077 126.84 212.749 127.608C213.421 128.36 213.757 129.304 213.757 130.44C213.757 131.384 213.509 132.2 213.013 132.888C212.533 133.56 211.869 134.08 211.021 134.448C210.173 134.816 209.189 135 208.069 135Z" fill="black"/>
<path d="M221.286 134.952C220.358 134.952 219.47 134.736 218.622 134.304C217.79 133.856 217.11 133.192 216.582 132.312C216.054 131.416 215.79 130.312 215.79 129C215.79 127.672 216.054 126.56 216.582 125.664C217.11 124.752 217.79 124.072 218.622 123.624C219.47 123.16 220.358 122.928 221.286 122.928C222.214 122.928 223.094 123.16 223.926 123.624C224.774 124.072 225.462 124.752 225.99 125.664C226.534 126.56 226.806 127.672 226.806 129C226.806 130.312 226.534 131.416 225.99 132.312C225.462 133.192 224.774 133.856 223.926 134.304C223.094 134.736 222.214 134.952 221.286 134.952ZM221.286 133.872C222.326 133.872 223.126 133.464 223.686 132.648C224.246 131.816 224.526 130.6 224.526 129C224.526 127.384 224.246 126.152 223.686 125.304C223.126 124.456 222.326 124.032 221.286 124.032C220.246 124.032 219.446 124.456 218.886 125.304C218.342 126.152 218.07 127.384 218.07 129C218.07 130.6 218.342 131.816 218.886 132.648C219.446 133.464 220.246 133.872 221.286 133.872Z" fill="black"/>
<path d="M233 134.952C232.024 134.952 231.256 134.632 230.696 133.992C230.136 133.336 229.864 132.216 229.88 130.632L229.952 124.656L228.248 124.296V123.432L231.776 123.096L232.016 123.336L231.896 126.696V130.416C231.896 131.456 232.056 132.192 232.376 132.624C232.696 133.04 233.176 133.248 233.816 133.248C234.936 133.248 236.056 132.728 237.176 131.688L237.248 124.632L235.544 124.296V123.432L239.024 123.096L239.264 123.336L239.192 126.696V133.44L240.824 133.776V134.64L237.488 134.832L237.248 132.696C236.608 133.48 235.92 134.056 235.184 134.424C234.464 134.776 233.736 134.952 233 134.952Z" fill="black"/>
<path d="M242.648 134.64V133.776L244.376 133.464C244.392 132.856 244.4 132.2 244.4 131.496C244.416 130.776 244.424 130.144 244.424 129.6V128.448C244.424 127.792 244.416 127.248 244.4 126.816C244.4 126.384 244.384 125.928 244.352 125.448L242.456 125.232V124.392L245.816 122.928L246.176 123.168L246.44 126C246.84 125.04 247.352 124.288 247.976 123.744C248.616 123.2 249.256 122.928 249.896 122.928C250.264 122.928 250.608 123.008 250.928 123.168C251.248 123.328 251.48 123.544 251.624 123.816C251.624 124.984 251.152 125.568 250.208 125.568C249.936 125.568 249.68 125.52 249.44 125.424C249.2 125.312 248.968 125.16 248.744 124.968L248.456 124.704C247.976 125.056 247.576 125.488 247.256 126C246.936 126.512 246.672 127.112 246.464 127.8V129.6C246.464 130.128 246.464 130.744 246.464 131.448C246.48 132.152 246.496 132.808 246.512 133.416L248.48 133.776V134.64H242.648Z" fill="black"/>
<path d="M257.962 134.952C256.314 134.952 255.002 134.416 254.026 133.344C253.05 132.272 252.562 130.816 252.562 128.976C252.562 127.712 252.818 126.632 253.33 125.736C253.858 124.824 254.546 124.128 255.394 123.648C256.242 123.168 257.146 122.928 258.106 122.928C258.826 122.928 259.49 123.064 260.098 123.336C260.706 123.608 261.21 123.984 261.61 124.464C262.01 124.928 262.258 125.456 262.354 126.048C262.242 126.656 261.874 126.96 261.25 126.96C260.85 126.96 260.546 126.856 260.338 126.648C260.146 126.424 260.01 126.144 259.93 125.808L259.498 124.224C259.274 124.144 259.05 124.096 258.826 124.08C258.618 124.048 258.41 124.032 258.202 124.032C257.178 124.032 256.33 124.432 255.658 125.232C255.002 126.032 254.674 127.2 254.674 128.736C254.674 130.24 255.034 131.392 255.754 132.192C256.474 132.992 257.394 133.392 258.514 133.392C259.202 133.392 259.834 133.24 260.41 132.936C260.986 132.616 261.458 132.16 261.826 131.568L262.426 131.88C262.09 132.872 261.546 133.632 260.794 134.16C260.042 134.688 259.098 134.952 257.962 134.952Z" fill="black"/>
<path d="M269.729 124.032C269.281 124.032 268.825 124.16 268.361 124.416C267.913 124.672 267.521 125.08 267.185 125.64C266.865 126.2 266.657 126.944 266.561 127.872H270.929C271.505 127.872 271.881 127.752 272.057 127.512C272.249 127.272 272.345 126.976 272.345 126.624C272.345 126.16 272.225 125.736 271.985 125.352C271.761 124.952 271.449 124.632 271.049 124.392C270.665 124.152 270.225 124.032 269.729 124.032ZM269.705 134.952C268.089 134.952 266.793 134.432 265.817 133.392C264.841 132.336 264.353 130.888 264.353 129.048C264.353 127.816 264.601 126.744 265.097 125.832C265.609 124.92 266.281 124.208 267.113 123.696C267.961 123.184 268.881 122.928 269.873 122.928C270.705 122.928 271.457 123.112 272.129 123.48C272.801 123.848 273.337 124.376 273.737 125.064C274.137 125.736 274.337 126.56 274.337 127.536C274.337 127.808 274.321 128.064 274.289 128.304C274.257 128.528 274.217 128.72 274.169 128.88H266.513C266.545 130.352 266.913 131.472 267.617 132.24C268.321 133.008 269.249 133.392 270.401 133.392C271.169 133.392 271.809 133.24 272.321 132.936C272.833 132.616 273.305 132.208 273.737 131.712L274.313 132.168C273.865 133.016 273.257 133.696 272.489 134.208C271.721 134.704 270.793 134.952 269.705 134.952Z" fill="black"/>
<path d="M286.749 135C285.853 135 284.989 134.88 284.157 134.64C283.325 134.384 282.629 134.08 282.069 133.728L282.213 130.368H283.701L284.181 133.2C284.549 133.408 284.925 133.56 285.309 133.656C285.709 133.752 286.165 133.8 286.677 133.8C287.813 133.8 288.717 133.552 289.389 133.056C290.061 132.544 290.397 131.824 290.397 130.896C290.397 130.128 290.157 129.536 289.677 129.12C289.213 128.688 288.469 128.272 287.445 127.872L286.509 127.488C285.277 127.008 284.277 126.392 283.509 125.64C282.757 124.872 282.381 123.88 282.381 122.664C282.381 121.736 282.613 120.944 283.077 120.288C283.557 119.632 284.205 119.128 285.021 118.776C285.837 118.408 286.757 118.224 287.781 118.224C288.581 118.224 289.309 118.336 289.965 118.56C290.621 118.784 291.205 119.088 291.717 119.472L291.573 122.616H290.109L289.605 119.904C289.013 119.584 288.357 119.424 287.637 119.424C286.725 119.424 285.957 119.656 285.333 120.12C284.709 120.568 284.397 121.24 284.397 122.136C284.397 122.872 284.629 123.48 285.093 123.96C285.573 124.44 286.245 124.848 287.109 125.184L288.069 125.544C289.637 126.152 290.757 126.84 291.429 127.608C292.101 128.36 292.437 129.304 292.437 130.44C292.437 131.384 292.189 132.2 291.693 132.888C291.213 133.56 290.549 134.08 289.701 134.448C288.853 134.816 287.869 135 286.749 135Z" fill="black"/>
<path d="M299.846 124.032C299.398 124.032 298.942 124.16 298.478 124.416C298.03 124.672 297.638 125.08 297.302 125.64C296.982 126.2 296.774 126.944 296.678 127.872H301.046C301.622 127.872 301.998 127.752 302.174 127.512C302.366 127.272 302.462 126.976 302.462 126.624C302.462 126.16 302.342 125.736 302.102 125.352C301.878 124.952 301.566 124.632 301.166 124.392C300.782 124.152 300.342 124.032 299.846 124.032ZM299.822 134.952C298.206 134.952 296.91 134.432 295.934 133.392C294.958 132.336 294.47 130.888 294.47 129.048C294.47 127.816 294.718 126.744 295.214 125.832C295.726 124.92 296.398 124.208 297.23 123.696C298.078 123.184 298.998 122.928 299.99 122.928C300.822 122.928 301.574 123.112 302.246 123.48C302.918 123.848 303.454 124.376 303.854 125.064C304.254 125.736 304.454 126.56 304.454 127.536C304.454 127.808 304.438 128.064 304.406 128.304C304.374 128.528 304.334 128.72 304.286 128.88H296.63C296.662 130.352 297.03 131.472 297.734 132.24C298.438 133.008 299.366 133.392 300.518 133.392C301.286 133.392 301.926 133.24 302.438 132.936C302.95 132.616 303.422 132.208 303.854 131.712L304.43 132.168C303.982 133.016 303.374 133.696 302.606 134.208C301.838 134.704 300.91 134.952 299.822 134.952Z" fill="black"/>
<path d="M306.632 134.64V133.776L308.36 133.464C308.376 132.856 308.384 132.2 308.384 131.496C308.4 130.776 308.408 130.144 308.408 129.6V128.448C308.408 127.792 308.4 127.248 308.384 126.816C308.384 126.384 308.368 125.928 308.336 125.448L306.44 125.232V124.392L309.8 122.928L310.16 123.168L310.424 126C310.824 125.04 311.336 124.288 311.96 123.744C312.6 123.2 313.24 122.928 313.88 122.928C314.248 122.928 314.592 123.008 314.912 123.168C315.232 123.328 315.464 123.544 315.608 123.816C315.608 124.984 315.136 125.568 314.192 125.568C313.92 125.568 313.664 125.52 313.424 125.424C313.184 125.312 312.952 125.16 312.728 124.968L312.44 124.704C311.96 125.056 311.56 125.488 311.24 126C310.92 126.512 310.656 127.112 310.448 127.8V129.6C310.448 130.128 310.448 130.744 310.448 131.448C310.464 132.152 310.48 132.808 310.496 133.416L312.464 133.776V134.64H306.632Z" fill="black"/>
<path d="M316.613 134.64V133.776L318.413 133.44C318.429 132.832 318.437 132.176 318.437 131.472C318.453 130.752 318.461 130.128 318.461 129.6V128.472C318.461 127.816 318.453 127.272 318.437 126.84C318.437 126.392 318.421 125.928 318.389 125.448L316.469 125.232V124.392L320.165 122.928L320.525 123.168L320.453 126.432V129.6C320.453 130.128 320.453 130.752 320.453 131.472C320.469 132.176 320.485 132.832 320.501 133.44L322.181 133.776V134.64H316.613ZM319.445 120.288C318.997 120.288 318.613 120.144 318.293 119.856C317.989 119.568 317.837 119.2 317.837 118.752C317.837 118.288 317.989 117.92 318.293 117.648C318.613 117.36 318.997 117.216 319.445 117.216C319.893 117.216 320.269 117.36 320.573 117.648C320.893 117.92 321.053 118.288 321.053 118.752C321.053 119.2 320.893 119.568 320.573 119.856C320.269 120.144 319.893 120.288 319.445 120.288Z" fill="black"/>
<path d="M323.785 134.64V133.776L325.681 133.44C325.697 132.8 325.705 132.16 325.705 131.52C325.721 130.88 325.729 130.24 325.729 129.6V124.512H323.737V123.456L325.777 123.192C325.889 121.912 326.065 120.88 326.305 120.096C326.561 119.296 326.985 118.6 327.577 118.008C328.089 117.496 328.625 117.144 329.185 116.952C329.745 116.76 330.297 116.664 330.841 116.664C331.401 116.664 331.897 116.768 332.329 116.976C332.761 117.168 333.033 117.496 333.145 117.96C333.129 118.264 332.993 118.52 332.737 118.728C332.481 118.936 332.129 119.04 331.681 119.04C331.105 119.04 330.529 118.8 329.953 118.32L329.281 117.792C329.217 117.84 329.153 117.888 329.089 117.936C329.041 117.984 328.993 118.032 328.945 118.08C328.529 118.496 328.209 119.128 327.985 119.976C327.777 120.808 327.689 121.896 327.721 123.24H331.033V124.512H327.769V129.6C327.769 130.24 327.769 130.88 327.769 131.52C327.785 132.144 327.801 132.776 327.817 133.416L329.977 133.776V134.64H323.785Z" fill="black"/>
<path d="M344.087 119.688H342.647C342.631 120.712 342.615 121.76 342.599 122.832C342.599 123.888 342.599 124.952 342.599 126.024V127.176H344.183C345.639 127.176 346.679 126.824 347.303 126.12C347.927 125.4 348.239 124.48 348.239 123.36C348.239 122.192 347.903 121.288 347.231 120.648C346.575 120.008 345.527 119.688 344.087 119.688ZM338.063 119.568V118.584H344.519C346.551 118.584 348.071 119.032 349.079 119.928C350.103 120.808 350.615 121.952 350.615 123.36C350.615 124.256 350.391 125.08 349.943 125.832C349.495 126.584 348.775 127.184 347.783 127.632C346.807 128.08 345.495 128.304 343.847 128.304H342.599C342.599 129.168 342.599 130.016 342.599 130.848C342.615 131.68 342.631 132.528 342.647 133.392L344.879 133.656V134.64H338.063V133.656L340.271 133.392C340.303 132.384 340.319 131.36 340.319 130.32C340.319 129.28 340.319 128.24 340.319 127.2V126.024C340.319 124.984 340.319 123.952 340.319 122.928C340.319 121.888 340.303 120.856 340.271 119.832L338.063 119.568Z" fill="black"/>
<path d="M351.914 134.64V133.776L353.642 133.464C353.658 132.856 353.666 132.2 353.666 131.496C353.682 130.776 353.69 130.144 353.69 129.6V128.448C353.69 127.792 353.682 127.248 353.666 126.816C353.666 126.384 353.65 125.928 353.618 125.448L351.722 125.232V124.392L355.082 122.928L355.442 123.168L355.706 126C356.106 125.04 356.618 124.288 357.242 123.744C357.882 123.2 358.522 122.928 359.162 122.928C359.53 122.928 359.874 123.008 360.194 123.168C360.514 123.328 360.746 123.544 360.89 123.816C360.89 124.984 360.418 125.568 359.474 125.568C359.202 125.568 358.946 125.52 358.706 125.424C358.466 125.312 358.234 125.16 358.01 124.968L357.722 124.704C357.242 125.056 356.842 125.488 356.522 126C356.202 126.512 355.938 127.112 355.73 127.8V129.6C355.73 130.128 355.73 130.744 355.73 131.448C355.746 132.152 355.762 132.808 355.778 133.416L357.746 133.776V134.64H351.914Z" fill="black"/>
<path d="M367.396 134.952C366.468 134.952 365.58 134.736 364.732 134.304C363.9 133.856 363.22 133.192 362.692 132.312C362.164 131.416 361.9 130.312 361.9 129C361.9 127.672 362.164 126.56 362.692 125.664C363.22 124.752 363.9 124.072 364.732 123.624C365.58 123.16 366.468 122.928 367.396 122.928C368.324 122.928 369.204 123.16 370.036 123.624C370.884 124.072 371.572 124.752 372.1 125.664C372.644 126.56 372.916 127.672 372.916 129C372.916 130.312 372.644 131.416 372.1 132.312C371.572 133.192 370.884 133.856 370.036 134.304C369.204 134.736 368.324 134.952 367.396 134.952ZM367.396 133.872C368.436 133.872 369.236 133.464 369.796 132.648C370.356 131.816 370.636 130.6 370.636 129C370.636 127.384 370.356 126.152 369.796 125.304C369.236 124.456 368.436 124.032 367.396 124.032C366.356 124.032 365.556 124.456 364.996 125.304C364.452 126.152 364.18 127.384 364.18 129C364.18 130.6 364.452 131.816 364.996 132.648C365.556 133.464 366.356 133.872 367.396 133.872Z" fill="black"/>
</g>
<defs>
<filter id="filter0_d" x="0" y="0" width="447.916" height="210" filterUnits="userSpaceOnUse" color-interpolation-filters="sRGB">
<feFlood flood-opacity="0" result="BackgroundImageFix"/>
<feColorMatrix in="SourceAlpha" type="matrix" values="0 0 0 0 0 0 0 0 0 0 0 0 0 0 0 0 0 0 127 0"/>
<feOffset/>
<feGaussianBlur stdDeviation="7.5"/>
<feColorMatrix type="matrix" values="0 0 0 0 0 0 0 0 0 0 0 0 0 0 0 0 0 0 0.15 0"/>
<feBlend mode="normal" in2="BackgroundImageFix" result="effect1_dropShadow"/>
<feBlend mode="normal" in="SourceGraphic" in2="effect1_dropShadow" result="shape"/>
</filter>
</defs>
</svg>
