<svg width="432" height="210" viewBox="0 0 432 210" fill="none" xmlns="http://www.w3.org/2000/svg">
<g filter="url(#filter0_d)">
<rect width="401.784" height="180" transform="translate(15 15)" fill="white"/>
<path d="M96.3559 88.0509C103.418 88.0509 108.842 89.7458 112.627 93.1356C116.412 96.4689 118.305 101.525 118.305 108.305V134.322H105.932V128.644C103.446 132.881 98.8136 135 92.0339 135C88.5311 135 85.4802 134.407 82.8814 133.22C80.339 132.034 78.3898 130.395 77.0339 128.305C75.678 126.215 75 123.842 75 121.186C75 116.949 76.5819 113.616 79.7458 111.186C82.9661 108.757 87.9096 107.542 94.5763 107.542H105.085C105.085 104.661 104.209 102.458 102.458 100.932C100.706 99.3503 98.0791 98.5593 94.5763 98.5593C92.1469 98.5593 89.7458 98.9548 87.3729 99.7458C85.0565 100.48 83.0791 101.497 81.4407 102.797L76.6949 93.5593C79.1808 91.8079 82.1469 90.452 85.5932 89.4915C89.096 88.5311 92.6836 88.0509 96.3559 88.0509ZM95.339 126.102C97.5989 126.102 99.6045 125.593 101.356 124.576C103.107 123.503 104.35 121.949 105.085 119.915V115.254H96.0169C90.5932 115.254 87.8814 117.034 87.8814 120.593C87.8814 122.288 88.5311 123.644 89.8305 124.661C91.1864 125.621 93.0226 126.102 95.339 126.102Z" fill="black"/>
<path d="M170.27 121.61H142.728L137.474 134.322H123.406L149.846 75H163.406L189.931 134.322H175.524L170.27 121.61ZM165.948 111.186L156.541 88.4746L147.135 111.186H165.948Z" fill="black"/>
<path d="M235.219 134.808L235.195 124.728L230.251 133.032H228.499L223.579 124.944V134.808H219.931V118.008H223.147L229.435 128.448L235.627 118.008H238.819L238.867 134.808H235.219Z" fill="black"/>
<path d="M248.733 135C247.373 135 246.149 134.72 245.061 134.16C243.989 133.584 243.149 132.792 242.541 131.784C241.933 130.776 241.629 129.632 241.629 128.352C241.629 127.072 241.933 125.928 242.541 124.92C243.149 123.912 243.989 123.128 245.061 122.568C246.149 121.992 247.373 121.704 248.733 121.704C250.093 121.704 251.309 121.992 252.381 122.568C253.453 123.128 254.293 123.912 254.901 124.92C255.509 125.928 255.813 127.072 255.813 128.352C255.813 129.632 255.509 130.776 254.901 131.784C254.293 132.792 253.453 133.584 252.381 134.16C251.309 134.72 250.093 135 248.733 135ZM248.733 131.928C249.693 131.928 250.477 131.608 251.085 130.968C251.709 130.312 252.021 129.44 252.021 128.352C252.021 127.264 251.709 126.4 251.085 125.76C250.477 125.104 249.693 124.776 248.733 124.776C247.773 124.776 246.981 125.104 246.357 125.76C245.733 126.4 245.421 127.264 245.421 128.352C245.421 129.44 245.733 130.312 246.357 130.968C246.981 131.608 247.773 131.928 248.733 131.928Z" fill="black"/>
<path d="M266.164 121.704C267.764 121.704 269.052 122.184 270.028 123.144C271.02 124.104 271.516 125.528 271.516 127.416V134.808H267.772V127.992C267.772 126.968 267.548 126.208 267.1 125.712C266.652 125.2 266.004 124.944 265.156 124.944C264.212 124.944 263.46 125.24 262.9 125.832C262.34 126.408 262.06 127.272 262.06 128.424V134.808H258.316V121.896H261.892V123.408C262.388 122.864 263.004 122.448 263.74 122.16C264.476 121.856 265.284 121.704 266.164 121.704Z" fill="black"/>
<path d="M283.237 134.184C282.869 134.456 282.413 134.664 281.869 134.808C281.341 134.936 280.781 135 280.189 135C278.653 135 277.461 134.608 276.613 133.824C275.781 133.04 275.365 131.888 275.365 130.368V125.064H273.373V122.184H275.365V119.04H279.109V122.184H282.325V125.064H279.109V130.32C279.109 130.864 279.245 131.288 279.517 131.592C279.805 131.88 280.205 132.024 280.717 132.024C281.309 132.024 281.813 131.864 282.229 131.544L283.237 134.184Z" fill="black"/>
<path d="M289.683 135C288.611 135 287.563 134.872 286.539 134.616C285.515 134.344 284.699 134.008 284.091 133.608L285.339 130.92C285.915 131.288 286.611 131.592 287.427 131.832C288.243 132.056 289.043 132.168 289.827 132.168C291.411 132.168 292.203 131.776 292.203 130.992C292.203 130.624 291.987 130.36 291.555 130.2C291.123 130.04 290.459 129.904 289.563 129.792C288.507 129.632 287.635 129.448 286.947 129.24C286.259 129.032 285.659 128.664 285.147 128.136C284.651 127.608 284.403 126.856 284.403 125.88C284.403 125.064 284.635 124.344 285.099 123.72C285.579 123.08 286.267 122.584 287.163 122.232C288.075 121.88 289.147 121.704 290.379 121.704C291.291 121.704 292.195 121.808 293.091 122.016C294.003 122.208 294.755 122.48 295.347 122.832L294.099 125.496C292.963 124.856 291.723 124.536 290.379 124.536C289.579 124.536 288.979 124.648 288.579 124.872C288.179 125.096 287.979 125.384 287.979 125.736C287.979 126.136 288.195 126.416 288.627 126.576C289.059 126.736 289.747 126.888 290.691 127.032C291.747 127.208 292.611 127.4 293.283 127.608C293.955 127.8 294.539 128.16 295.035 128.688C295.531 129.216 295.779 129.952 295.779 130.896C295.779 131.696 295.539 132.408 295.059 133.032C294.579 133.656 293.875 134.144 292.947 134.496C292.035 134.832 290.947 135 289.683 135Z" fill="black"/>
<path d="M310.737 128.4C310.737 128.448 310.713 128.784 310.665 129.408H300.897C301.073 130.208 301.489 130.84 302.145 131.304C302.801 131.768 303.617 132 304.593 132C305.265 132 305.857 131.904 306.369 131.712C306.897 131.504 307.385 131.184 307.833 130.752L309.825 132.912C308.609 134.304 306.833 135 304.497 135C303.041 135 301.753 134.72 300.633 134.16C299.513 133.584 298.649 132.792 298.041 131.784C297.433 130.776 297.129 129.632 297.129 128.352C297.129 127.088 297.425 125.952 298.017 124.944C298.625 123.92 299.449 123.128 300.489 122.568C301.545 121.992 302.721 121.704 304.017 121.704C305.281 121.704 306.425 121.976 307.449 122.52C308.473 123.064 309.273 123.848 309.849 124.872C310.441 125.88 310.737 127.056 310.737 128.4ZM304.041 124.536C303.193 124.536 302.481 124.776 301.905 125.256C301.329 125.736 300.977 126.392 300.849 127.224H307.209C307.081 126.408 306.729 125.76 306.153 125.28C305.577 124.784 304.873 124.536 304.041 124.536Z" fill="black"/>
<path d="M316.806 123.6C317.254 122.976 317.854 122.504 318.606 122.184C319.374 121.864 320.254 121.704 321.246 121.704V125.16C320.83 125.128 320.55 125.112 320.406 125.112C319.334 125.112 318.494 125.416 317.886 126.024C317.278 126.616 316.974 127.512 316.974 128.712V134.808H313.23V121.896H316.806V123.6Z" fill="black"/>
<path d="M327.048 123.6C327.496 122.976 328.096 122.504 328.848 122.184C329.616 121.864 330.496 121.704 331.488 121.704V125.16C331.072 125.128 330.792 125.112 330.648 125.112C329.576 125.112 328.736 125.416 328.128 126.024C327.52 126.616 327.216 127.512 327.216 128.712V134.808H323.472V121.896H327.048V123.6Z" fill="black"/>
<path d="M338.852 121.704C340.852 121.704 342.388 122.184 343.46 123.144C344.532 124.088 345.068 125.52 345.068 127.44V134.808H341.564V133.2C340.86 134.4 339.548 135 337.628 135C336.636 135 335.772 134.832 335.036 134.496C334.316 134.16 333.764 133.696 333.38 133.104C332.996 132.512 332.804 131.84 332.804 131.088C332.804 129.888 333.252 128.944 334.148 128.256C335.06 127.568 336.46 127.224 338.348 127.224H341.324C341.324 126.408 341.076 125.784 340.58 125.352C340.084 124.904 339.34 124.68 338.348 124.68C337.66 124.68 336.98 124.792 336.308 125.016C335.652 125.224 335.092 125.512 334.628 125.88L333.284 123.264C333.988 122.768 334.828 122.384 335.804 122.112C336.796 121.84 337.812 121.704 338.852 121.704ZM338.564 132.48C339.204 132.48 339.772 132.336 340.268 132.048C340.764 131.744 341.116 131.304 341.324 130.728V129.408H338.756C337.22 129.408 336.452 129.912 336.452 130.92C336.452 131.4 336.636 131.784 337.004 132.072C337.388 132.344 337.908 132.48 338.564 132.48Z" fill="black"/>
<path d="M356.784 134.184C356.416 134.456 355.96 134.664 355.416 134.808C354.888 134.936 354.328 135 353.736 135C352.2 135 351.008 134.608 350.16 133.824C349.328 133.04 348.912 131.888 348.912 130.368V125.064H346.92V122.184H348.912V119.04H352.656V122.184H355.872V125.064H352.656V130.32C352.656 130.864 352.792 131.288 353.064 131.592C353.352 131.88 353.752 132.024 354.264 132.024C354.856 132.024 355.36 131.864 355.776 131.544L356.784 134.184Z" fill="black"/>
</g>
<defs>
<filter id="filter0_d" x="0" y="0" width="431.784" height="210" filterUnits="userSpaceOnUse" color-interpolation-filters="sRGB">
<feFlood flood-opacity="0" result="BackgroundImageFix"/>
<feColorMatrix in="SourceAlpha" type="matrix" values="0 0 0 0 0 0 0 0 0 0 0 0 0 0 0 0 0 0 127 0"/>
<feOffset/>
<feGaussianBlur stdDeviation="7.5"/>
<feColorMatrix type="matrix" values="0 0 0 0 0 0 0 0 0 0 0 0 0 0 0 0 0 0 0.15 0"/>
<feBlend mode="normal" in2="BackgroundImageFix" result="effect1_dropShadow"/>
<feBlend mode="normal" in="SourceGraphic" in2="effect1_dropShadow" result="shape"/>
</filter>
</defs>
</svg>
