<svg width="790" height="667" viewBox="0 0 790 667" fill="none" xmlns="http://www.w3.org/2000/svg">
<g filter="url(#filter0_d)">
<rect width="116" height="116" transform="translate(596 541)" fill="white"/>
<path d="M654 600.75C657.803 600.75 661.163 601.66 663.893 602.85C666.413 603.97 668 606.49 668 609.22V613H640V609.243C640 606.49 641.587 603.97 644.107 602.873C646.837 601.66 650.197 600.75 654 600.75ZM635.333 601.333C637.9 601.333 640 599.233 640 596.667C640 594.1 637.9 592 635.333 592C632.767 592 630.667 594.1 630.667 596.667C630.667 599.233 632.767 601.333 635.333 601.333ZM637.97 603.9C637.107 603.76 636.243 603.667 635.333 603.667C633.023 603.667 630.83 604.157 628.847 605.02C627.12 605.767 626 607.447 626 609.337V613H636.5V609.243C636.5 607.307 637.037 605.487 637.97 603.9ZM672.667 601.333C675.233 601.333 677.333 599.233 677.333 596.667C677.333 594.1 675.233 592 672.667 592C670.1 592 668 594.1 668 596.667C668 599.233 670.1 601.333 672.667 601.333ZM682 609.337C682 607.447 680.88 605.767 679.153 605.02C677.17 604.157 674.977 603.667 672.667 603.667C671.757 603.667 670.893 603.76 670.03 603.9C670.963 605.487 671.5 607.307 671.5 609.243V613H682V609.337ZM654 585C657.873 585 661 588.127 661 592C661 595.873 657.873 599 654 599C650.127 599 647 595.873 647 592C647 588.127 650.127 585 654 585Z" fill="black"/>
</g>
<rect width="607" height="398.114" transform="translate(143 115.667)" fill="white"/>
<path d="M192.485 169.216L190.325 166.096H190.197H187.941V169.216H185.349V158.016H190.197C191.189 158.016 192.047 158.182 192.773 158.512C193.509 158.843 194.074 159.312 194.469 159.92C194.863 160.528 195.061 161.248 195.061 162.08C195.061 162.912 194.858 163.632 194.453 164.24C194.058 164.838 193.493 165.296 192.757 165.616L195.269 169.216H192.485ZM192.437 162.08C192.437 161.451 192.234 160.971 191.829 160.64C191.423 160.299 190.831 160.128 190.053 160.128H187.941V164.032H190.053C190.831 164.032 191.423 163.862 191.829 163.52C192.234 163.179 192.437 162.699 192.437 162.08Z" fill="black"/>
<path d="M200.332 160.48C201.666 160.48 202.69 160.8 203.404 161.44C204.119 162.07 204.476 163.024 204.476 164.304V169.216H202.14V168.144C201.671 168.944 200.796 169.344 199.516 169.344C198.855 169.344 198.279 169.232 197.788 169.008C197.308 168.784 196.94 168.475 196.684 168.08C196.428 167.686 196.3 167.238 196.3 166.736C196.3 165.936 196.599 165.307 197.196 164.848C197.804 164.39 198.738 164.16 199.996 164.16H201.98C201.98 163.616 201.815 163.2 201.484 162.912C201.154 162.614 200.658 162.464 199.996 162.464C199.538 162.464 199.084 162.539 198.636 162.688C198.199 162.827 197.826 163.019 197.516 163.264L196.62 161.52C197.09 161.19 197.65 160.934 198.3 160.752C198.962 160.571 199.639 160.48 200.332 160.48ZM200.14 167.664C200.567 167.664 200.946 167.568 201.276 167.376C201.607 167.174 201.842 166.88 201.98 166.496V165.616H200.268C199.244 165.616 198.732 165.952 198.732 166.624C198.732 166.944 198.855 167.2 199.1 167.392C199.356 167.574 199.703 167.664 200.14 167.664Z" fill="black"/>
<path d="M209.631 169.344C208.917 169.344 208.218 169.259 207.535 169.088C206.853 168.907 206.309 168.683 205.903 168.416L206.735 166.624C207.119 166.87 207.583 167.072 208.127 167.232C208.671 167.382 209.205 167.456 209.727 167.456C210.783 167.456 211.311 167.195 211.311 166.672C211.311 166.427 211.167 166.251 210.879 166.144C210.591 166.038 210.149 165.947 209.551 165.872C208.847 165.766 208.266 165.643 207.807 165.504C207.349 165.366 206.949 165.12 206.607 164.768C206.277 164.416 206.111 163.915 206.111 163.264C206.111 162.72 206.266 162.24 206.575 161.824C206.895 161.398 207.354 161.067 207.951 160.832C208.559 160.598 209.274 160.48 210.095 160.48C210.703 160.48 211.306 160.55 211.903 160.688C212.511 160.816 213.013 160.998 213.407 161.232L212.575 163.008C211.818 162.582 210.991 162.368 210.095 162.368C209.562 162.368 209.162 162.443 208.895 162.592C208.629 162.742 208.495 162.934 208.495 163.168C208.495 163.435 208.639 163.622 208.927 163.728C209.215 163.835 209.674 163.936 210.303 164.032C211.007 164.15 211.583 164.278 212.031 164.416C212.479 164.544 212.869 164.784 213.199 165.136C213.53 165.488 213.695 165.979 213.695 166.608C213.695 167.142 213.535 167.616 213.215 168.032C212.895 168.448 212.426 168.774 211.807 169.008C211.199 169.232 210.474 169.344 209.631 169.344Z" fill="black"/>
<path d="M220.787 168.8C220.542 168.982 220.238 169.12 219.875 169.216C219.523 169.302 219.15 169.344 218.755 169.344C217.731 169.344 216.937 169.083 216.371 168.56C215.817 168.038 215.539 167.27 215.539 166.256V162.72H214.211V160.8H215.539V158.704H218.035V160.8H220.179V162.72H218.035V166.224C218.035 166.587 218.126 166.87 218.307 167.072C218.499 167.264 218.766 167.36 219.107 167.36C219.502 167.36 219.838 167.254 220.115 167.04L220.787 168.8Z" fill="black"/>
<path d="M230.355 164.944C230.355 164.976 230.339 165.2 230.307 165.616H223.795C223.912 166.15 224.189 166.571 224.627 166.88C225.064 167.19 225.608 167.344 226.259 167.344C226.707 167.344 227.101 167.28 227.443 167.152C227.795 167.014 228.12 166.8 228.419 166.512L229.747 167.952C228.936 168.88 227.752 169.344 226.195 169.344C225.224 169.344 224.365 169.158 223.619 168.784C222.872 168.4 222.296 167.872 221.891 167.2C221.485 166.528 221.283 165.766 221.283 164.912C221.283 164.07 221.48 163.312 221.875 162.64C222.28 161.958 222.829 161.43 223.523 161.056C224.227 160.672 225.011 160.48 225.875 160.48C226.717 160.48 227.48 160.662 228.163 161.024C228.845 161.387 229.379 161.91 229.763 162.592C230.157 163.264 230.355 164.048 230.355 164.944ZM225.891 162.368C225.325 162.368 224.851 162.528 224.467 162.848C224.083 163.168 223.848 163.606 223.763 164.16H228.003C227.917 163.616 227.683 163.184 227.299 162.864C226.915 162.534 226.445 162.368 225.891 162.368Z" fill="black"/>
<path d="M234.401 161.744C234.699 161.328 235.099 161.014 235.601 160.8C236.113 160.587 236.699 160.48 237.361 160.48V162.784C237.083 162.763 236.897 162.752 236.801 162.752C236.086 162.752 235.526 162.955 235.121 163.36C234.715 163.755 234.513 164.352 234.513 165.152V169.216H232.017V160.608H234.401V161.744Z" fill="black"/>
<rect width="522.302" height="282.326" transform="translate(185.349 189.107)" fill="white"/>
<rect x="185.349" y="189.107" width="70.5814" height="282.326" fill="#CACACA"/>
<rect x="275.693" y="189.107" width="70.5814" height="282.326" fill="#CACACA"/>
<rect x="366.037" y="189.107" width="70.5814" height="282.326" fill="#CACACA"/>
<rect x="456.381" y="189.107" width="70.5814" height="282.326" fill="#CACACA"/>
<rect x="546.726" y="189.107" width="70.5814" height="282.326" fill="#CACACA"/>
<rect x="637.07" y="189.107" width="70.5814" height="282.326" fill="#CACACA"/>
<g filter="url(#filter1_d)">
<rect width="150" height="125.882" transform="translate(65 357)" fill="white"/>
<path d="M135.75 427.632H122.997L120.564 433.518H114.05L126.293 406.05H132.571L144.853 433.518H138.183L135.75 427.632ZM133.749 422.806L129.393 412.289L125.037 422.806H133.749Z" fill="black"/>
<path d="M155.787 412.093C159.057 412.093 161.568 412.878 163.321 414.447C165.074 415.991 165.95 418.332 165.95 421.471V433.518H160.221V430.889C159.07 432.851 156.925 433.832 153.786 433.832C152.164 433.832 150.751 433.557 149.548 433.008C148.37 432.459 147.468 431.7 146.84 430.732C146.212 429.764 145.898 428.665 145.898 427.436C145.898 425.474 146.631 423.93 148.096 422.806C149.587 421.681 151.876 421.118 154.963 421.118H159.828C159.828 419.784 159.423 418.764 158.612 418.058C157.801 417.325 156.585 416.959 154.963 416.959C153.838 416.959 152.726 417.142 151.627 417.508C150.555 417.848 149.639 418.319 148.881 418.921L146.683 414.644C147.834 413.833 149.208 413.205 150.803 412.76C152.425 412.315 154.086 412.093 155.787 412.093ZM155.316 429.712C156.362 429.712 157.291 429.476 158.102 429.005C158.913 428.508 159.488 427.789 159.828 426.847V424.689H155.63C153.118 424.689 151.863 425.513 151.863 427.161C151.863 427.946 152.164 428.574 152.765 429.045C153.393 429.489 154.243 429.712 155.316 429.712Z" fill="black"/>
</g>
<g filter="url(#filter2_d)">
<rect width="135" height="157" transform="translate(538 10)" fill="white"/>
<circle cx="605.5" cy="72.5" r="32.5" fill="#EC4A70"/>
<path d="M576.464 124.848L576.08 127.952H578.304V129.12H575.936L575.584 132H574.448L574.8 129.12H571.776L571.424 132H570.288L570.64 129.12H568.432V127.952H570.784L571.184 124.848H568.944V123.68H571.328L571.68 120.8H572.816L572.464 123.68H575.472L575.824 120.8H576.96L576.608 123.68H578.816V124.848H576.464ZM575.328 124.848H572.32L571.92 127.952H574.944L575.328 124.848ZM589.058 130.608V132H580.93V120.8H588.834V122.192H582.53V125.632H588.146V126.992H582.53V130.608H589.058ZM596.61 132.128C595.49 132.128 594.477 131.883 593.57 131.392C592.674 130.891 591.97 130.208 591.458 129.344C590.946 128.469 590.69 127.488 590.69 126.4C590.69 125.312 590.946 124.336 591.458 123.472C591.97 122.597 592.679 121.915 593.586 121.424C594.493 120.923 595.506 120.672 596.626 120.672C597.501 120.672 598.301 120.821 599.026 121.12C599.751 121.408 600.37 121.84 600.882 122.416L599.842 123.424C598.999 122.539 597.949 122.096 596.69 122.096C595.858 122.096 595.106 122.283 594.434 122.656C593.762 123.029 593.234 123.547 592.85 124.208C592.477 124.859 592.29 125.589 592.29 126.4C592.29 127.211 592.477 127.947 592.85 128.608C593.234 129.259 593.762 129.771 594.434 130.144C595.106 130.517 595.858 130.704 596.69 130.704C597.938 130.704 598.989 130.256 599.842 129.36L600.882 130.368C600.37 130.944 599.746 131.381 599.01 131.68C598.285 131.979 597.485 132.128 596.61 132.128ZM611.575 129.248H609.447V132H607.895V129.248H601.671V128.128L607.399 120.8H609.127L603.639 127.872H607.943V125.44H609.447V127.872H611.575V129.248ZM620.582 129.2H614.63L613.398 132H611.75L616.822 120.8H618.406L623.494 132H621.814L620.582 129.2ZM620.022 127.92L617.606 122.432L615.19 127.92H620.022ZM631.616 120.8V121.888L627.088 132H625.392L629.824 122.192H624.704V124.192H623.168V120.8H631.616ZM637.282 132.128C636.396 132.128 635.607 131.904 634.914 131.456C634.231 130.997 633.692 130.336 633.298 129.472C632.903 128.608 632.706 127.584 632.706 126.4C632.706 125.216 632.903 124.192 633.298 123.328C633.692 122.464 634.231 121.808 634.914 121.36C635.607 120.901 636.396 120.672 637.282 120.672C638.156 120.672 638.935 120.901 639.618 121.36C640.311 121.808 640.855 122.464 641.25 123.328C641.644 124.192 641.842 125.216 641.842 126.4C641.842 127.584 641.644 128.608 641.25 129.472C640.855 130.336 640.311 130.997 639.618 131.456C638.935 131.904 638.156 132.128 637.282 132.128ZM637.282 130.704C638.178 130.704 638.892 130.336 639.426 129.6C639.97 128.864 640.242 127.797 640.242 126.4C640.242 125.003 639.97 123.936 639.426 123.2C638.892 122.464 638.178 122.096 637.282 122.096C636.375 122.096 635.65 122.464 635.106 123.2C634.572 123.936 634.306 125.003 634.306 126.4C634.306 127.797 634.572 128.864 635.106 129.6C635.65 130.336 636.375 130.704 637.282 130.704Z" fill="black"/>
</g>
<g filter="url(#filter3_d)">
<rect width="252" height="118" transform="translate(528 291)" fill="white"/>
<path d="M558 326C558 323.239 560.239 321 563 321H745C747.761 321 750 323.239 750 326V374C750 376.761 747.761 379 745 379H563C560.239 379 558 376.761 558 374V326Z" fill="#003B7C"/>
<path d="M599.52 349.74C600.333 349.967 600.973 350.38 601.44 350.98C601.907 351.567 602.14 352.313 602.14 353.22C602.14 354.433 601.68 355.367 600.76 356.02C599.853 356.673 598.527 357 596.78 357H590.1V343H596.38C597.98 343 599.213 343.32 600.08 343.96C600.96 344.6 601.4 345.487 601.4 346.62C601.4 347.353 601.227 347.987 600.88 348.52C600.547 349.053 600.093 349.46 599.52 349.74ZM592.1 344.62V349.1H596.2C597.227 349.1 598.013 348.913 598.56 348.54C599.12 348.153 599.4 347.593 599.4 346.86C599.4 346.127 599.12 345.573 598.56 345.2C598.013 344.813 597.227 344.62 596.2 344.62H592.1ZM596.7 355.38C597.833 355.38 598.687 355.193 599.26 354.82C599.833 354.447 600.12 353.86 600.12 353.06C600.12 351.5 598.98 350.72 596.7 350.72H592.1V355.38H596.7ZM614.837 346.4V357H613.017V355.4C612.63 355.947 612.117 356.373 611.477 356.68C610.85 356.973 610.163 357.12 609.417 357.12C608.003 357.12 606.89 356.733 606.077 355.96C605.263 355.173 604.857 354.02 604.857 352.5V346.4H606.777V352.28C606.777 353.307 607.023 354.087 607.517 354.62C608.01 355.14 608.717 355.4 609.637 355.4C610.65 355.4 611.45 355.093 612.037 354.48C612.623 353.867 612.917 353 612.917 351.88V346.4H614.837ZM624.452 356.38C624.172 356.62 623.825 356.807 623.412 356.94C622.999 357.06 622.572 357.12 622.132 357.12C621.065 357.12 620.239 356.833 619.652 356.26C619.065 355.687 618.772 354.867 618.772 353.8V347.98H616.972V346.4H618.772V344.08H620.692V346.4H623.732V347.98H620.692V353.72C620.692 354.293 620.832 354.733 621.112 355.04C621.405 355.347 621.819 355.5 622.352 355.5C622.939 355.5 623.439 355.333 623.852 355L624.452 356.38ZM632.479 356.38C632.199 356.62 631.853 356.807 631.439 356.94C631.026 357.06 630.599 357.12 630.159 357.12C629.093 357.12 628.266 356.833 627.679 356.26C627.093 355.687 626.799 354.867 626.799 353.8V347.98H624.999V346.4H626.799V344.08H628.719V346.4H631.759V347.98H628.719V353.72C628.719 354.293 628.859 354.733 629.139 355.04C629.433 355.347 629.846 355.5 630.379 355.5C630.966 355.5 631.466 355.333 631.879 355L632.479 356.38ZM638.989 357.12C637.936 357.12 636.989 356.887 636.149 356.42C635.309 355.953 634.649 355.313 634.169 354.5C633.702 353.673 633.469 352.74 633.469 351.7C633.469 350.66 633.702 349.733 634.169 348.92C634.649 348.093 635.309 347.453 636.149 347C636.989 346.533 637.936 346.3 638.989 346.3C640.042 346.3 640.982 346.533 641.809 347C642.649 347.453 643.302 348.093 643.769 348.92C644.249 349.733 644.489 350.66 644.489 351.7C644.489 352.74 644.249 353.673 643.769 354.5C643.302 355.313 642.649 355.953 641.809 356.42C640.982 356.887 640.042 357.12 638.989 357.12ZM638.989 355.44C639.669 355.44 640.276 355.287 640.809 354.98C641.356 354.66 641.782 354.22 642.089 353.66C642.396 353.087 642.549 352.433 642.549 351.7C642.549 350.967 642.396 350.32 642.089 349.76C641.782 349.187 641.356 348.747 640.809 348.44C640.276 348.133 639.669 347.98 638.989 347.98C638.309 347.98 637.696 348.133 637.149 348.44C636.616 348.747 636.189 349.187 635.869 349.76C635.562 350.32 635.409 350.967 635.409 351.7C635.409 352.433 635.562 353.087 635.869 353.66C636.189 354.22 636.616 354.66 637.149 354.98C637.696 355.287 638.309 355.44 638.989 355.44ZM652.804 346.3C654.151 346.3 655.218 346.693 656.004 347.48C656.804 348.253 657.204 349.393 657.204 350.9V357H655.284V351.12C655.284 350.093 655.038 349.32 654.544 348.8C654.051 348.28 653.344 348.02 652.424 348.02C651.384 348.02 650.564 348.327 649.964 348.94C649.364 349.54 649.064 350.407 649.064 351.54V357H647.144V346.4H648.984V348C649.371 347.453 649.891 347.033 650.544 346.74C651.211 346.447 651.964 346.3 652.804 346.3ZM666.409 343H668.409V355.26H675.989V357H666.409V343ZM681.922 346.3C683.389 346.3 684.509 346.66 685.282 347.38C686.069 348.1 686.462 349.173 686.462 350.6V357H684.642V355.6C684.322 356.093 683.862 356.473 683.262 356.74C682.676 356.993 681.976 357.12 681.162 357.12C679.976 357.12 679.022 356.833 678.302 356.26C677.596 355.687 677.242 354.933 677.242 354C677.242 353.067 677.582 352.32 678.262 351.76C678.942 351.187 680.022 350.9 681.502 350.9H684.542V350.52C684.542 349.693 684.302 349.06 683.822 348.62C683.342 348.18 682.636 347.96 681.702 347.96C681.076 347.96 680.462 348.067 679.862 348.28C679.262 348.48 678.756 348.753 678.342 349.1L677.542 347.66C678.089 347.22 678.742 346.887 679.502 346.66C680.262 346.42 681.069 346.3 681.922 346.3ZM681.482 355.64C682.216 355.64 682.849 355.48 683.382 355.16C683.916 354.827 684.302 354.36 684.542 353.76V352.28H681.582C679.956 352.28 679.142 352.827 679.142 353.92C679.142 354.453 679.349 354.873 679.762 355.18C680.176 355.487 680.749 355.64 681.482 355.64ZM695.635 346.3C696.662 346.3 697.582 346.527 698.395 346.98C699.209 347.433 699.842 348.067 700.295 348.88C700.762 349.693 700.995 350.633 700.995 351.7C700.995 352.767 700.762 353.713 700.295 354.54C699.842 355.353 699.209 355.987 698.395 356.44C697.582 356.893 696.662 357.12 695.635 357.12C694.849 357.12 694.129 356.967 693.475 356.66C692.822 356.353 692.282 355.907 691.855 355.32V357H690.015V342.16H691.935V348C692.362 347.44 692.895 347.02 693.535 346.74C694.175 346.447 694.875 346.3 695.635 346.3ZM695.475 355.44C696.155 355.44 696.762 355.287 697.295 354.98C697.842 354.66 698.269 354.22 698.575 353.66C698.895 353.087 699.055 352.433 699.055 351.7C699.055 350.967 698.895 350.32 698.575 349.76C698.269 349.187 697.842 348.747 697.295 348.44C696.762 348.133 696.155 347.98 695.475 347.98C694.809 347.98 694.202 348.133 693.655 348.44C693.109 348.747 692.682 349.187 692.375 349.76C692.069 350.32 691.915 350.967 691.915 351.7C691.915 352.433 692.069 353.087 692.375 353.66C692.682 354.22 693.109 354.66 693.655 354.98C694.202 355.287 694.809 355.44 695.475 355.44ZM713.228 351.76C713.228 351.907 713.215 352.1 713.188 352.34H704.588C704.708 353.273 705.115 354.027 705.808 354.6C706.515 355.16 707.388 355.44 708.428 355.44C709.695 355.44 710.715 355.013 711.488 354.16L712.548 355.4C712.068 355.96 711.468 356.387 710.748 356.68C710.041 356.973 709.248 357.12 708.368 357.12C707.248 357.12 706.255 356.893 705.388 356.44C704.521 355.973 703.848 355.327 703.368 354.5C702.901 353.673 702.668 352.74 702.668 351.7C702.668 350.673 702.895 349.747 703.348 348.92C703.815 348.093 704.448 347.453 705.248 347C706.061 346.533 706.975 346.3 707.988 346.3C709.001 346.3 709.901 346.533 710.688 347C711.488 347.453 712.108 348.093 712.548 348.92C713.001 349.747 713.228 350.693 713.228 351.76ZM707.988 347.92C707.068 347.92 706.295 348.2 705.668 348.76C705.055 349.32 704.695 350.053 704.588 350.96H711.388C711.281 350.067 710.915 349.34 710.288 348.78C709.675 348.207 708.908 347.92 707.988 347.92ZM715.894 342.16H717.814V357H715.894V342.16Z" fill="#003B7C"/>
</g>
<g clip-path="url(#clip0)" filter="url(#filter4_d)">
<rect width="195" height="80" transform="translate(10 63)" fill="white"/>
<rect x="85" y="63" width="160" height="80" fill="#003B7C"/>
<rect x="-35" y="63" width="120" height="80" fill="#B4DA1C"/>
<path d="M125 103L85 63V143L125 103Z" fill="#B4DA1C"/>
<path d="M73.375 98.1C71.675 89.475 64.1 83 55 83C47.775 83 41.5 87.1 38.375 93.1C30.85 93.9 25 100.275 25 108C25 116.275 31.725 123 40 123H72.5C79.4 123 85 117.4 85 110.5C85 103.9 79.875 98.55 73.375 98.1Z" fill="#3DA6EE"/>
<path d="M171.6 123H145V115H171.6V123ZM183 107H145V99H183V107ZM183 91H145V83H183V91Z" fill="#EF809A"/>
</g>
<defs>
<filter id="filter0_d" x="586" y="531" width="136" height="136" filterUnits="userSpaceOnUse" color-interpolation-filters="sRGB">
<feFlood flood-opacity="0" result="BackgroundImageFix"/>
<feColorMatrix in="SourceAlpha" type="matrix" values="0 0 0 0 0 0 0 0 0 0 0 0 0 0 0 0 0 0 127 0"/>
<feOffset/>
<feGaussianBlur stdDeviation="5"/>
<feColorMatrix type="matrix" values="0 0 0 0 0 0 0 0 0 0 0 0 0 0 0 0 0 0 0.41 0"/>
<feBlend mode="normal" in2="BackgroundImageFix" result="effect1_dropShadow"/>
<feBlend mode="normal" in="SourceGraphic" in2="effect1_dropShadow" result="shape"/>
</filter>
<filter id="filter1_d" x="48.65" y="340.65" width="182.7" height="158.582" filterUnits="userSpaceOnUse" color-interpolation-filters="sRGB">
<feFlood flood-opacity="0" result="BackgroundImageFix"/>
<feColorMatrix in="SourceAlpha" type="matrix" values="0 0 0 0 0 0 0 0 0 0 0 0 0 0 0 0 0 0 127 0"/>
<feOffset/>
<feGaussianBlur stdDeviation="8.17501"/>
<feColorMatrix type="matrix" values="0 0 0 0 0 0 0 0 0 0 0 0 0 0 0 0 0 0 0.41 0"/>
<feBlend mode="normal" in2="BackgroundImageFix" result="effect1_dropShadow"/>
<feBlend mode="normal" in="SourceGraphic" in2="effect1_dropShadow" result="shape"/>
</filter>
<filter id="filter2_d" x="528" y="0" width="155" height="177" filterUnits="userSpaceOnUse" color-interpolation-filters="sRGB">
<feFlood flood-opacity="0" result="BackgroundImageFix"/>
<feColorMatrix in="SourceAlpha" type="matrix" values="0 0 0 0 0 0 0 0 0 0 0 0 0 0 0 0 0 0 127 0"/>
<feOffset/>
<feGaussianBlur stdDeviation="5"/>
<feColorMatrix type="matrix" values="0 0 0 0 0 0 0 0 0 0 0 0 0 0 0 0 0 0 0.41 0"/>
<feBlend mode="normal" in2="BackgroundImageFix" result="effect1_dropShadow"/>
<feBlend mode="normal" in="SourceGraphic" in2="effect1_dropShadow" result="shape"/>
</filter>
<filter id="filter3_d" x="518" y="281" width="272" height="138" filterUnits="userSpaceOnUse" color-interpolation-filters="sRGB">
<feFlood flood-opacity="0" result="BackgroundImageFix"/>
<feColorMatrix in="SourceAlpha" type="matrix" values="0 0 0 0 0 0 0 0 0 0 0 0 0 0 0 0 0 0 127 0"/>
<feOffset/>
<feGaussianBlur stdDeviation="5"/>
<feColorMatrix type="matrix" values="0 0 0 0 0 0 0 0 0 0 0 0 0 0 0 0 0 0 0.41 0"/>
<feBlend mode="normal" in2="BackgroundImageFix" result="effect1_dropShadow"/>
<feBlend mode="normal" in="SourceGraphic" in2="effect1_dropShadow" result="shape"/>
</filter>
<filter id="filter4_d" x="0" y="53" width="215" height="100" filterUnits="userSpaceOnUse" color-interpolation-filters="sRGB">
<feFlood flood-opacity="0" result="BackgroundImageFix"/>
<feColorMatrix in="SourceAlpha" type="matrix" values="0 0 0 0 0 0 0 0 0 0 0 0 0 0 0 0 0 0 127 0"/>
<feOffset/>
<feGaussianBlur stdDeviation="5"/>
<feColorMatrix type="matrix" values="0 0 0 0 0 0 0 0 0 0 0 0 0 0 0 0 0 0 0.41 0"/>
<feBlend mode="normal" in2="BackgroundImageFix" result="effect1_dropShadow"/>
<feBlend mode="normal" in="SourceGraphic" in2="effect1_dropShadow" result="shape"/>
</filter>
<clipPath id="clip0">
<rect width="195" height="80" fill="white" transform="translate(10 63)"/>
</clipPath>
</defs>
</svg>
