<svg width="842" height="677" viewBox="0 0 842 677" fill="none" xmlns="http://www.w3.org/2000/svg">
<g filter="url(#filter0_d)">
<rect width="116" height="116" transform="translate(601 546)" fill="white"/>
<path d="M659 605.75C662.803 605.75 666.163 606.66 668.893 607.85C671.413 608.97 673 611.49 673 614.22V618H645V614.243C645 611.49 646.587 608.97 649.107 607.873C651.837 606.66 655.197 605.75 659 605.75ZM640.333 606.333C642.9 606.333 645 604.233 645 601.667C645 599.1 642.9 597 640.333 597C637.767 597 635.667 599.1 635.667 601.667C635.667 604.233 637.767 606.333 640.333 606.333ZM642.97 608.9C642.107 608.76 641.243 608.667 640.333 608.667C638.023 608.667 635.83 609.157 633.847 610.02C632.12 610.767 631 612.447 631 614.337V618H641.5V614.243C641.5 612.307 642.037 610.487 642.97 608.9ZM677.667 606.333C680.233 606.333 682.333 604.233 682.333 601.667C682.333 599.1 680.233 597 677.667 597C675.1 597 673 599.1 673 601.667C673 604.233 675.1 606.333 677.667 606.333ZM687 614.337C687 612.447 685.88 610.767 684.153 610.02C682.17 609.157 679.977 608.667 677.667 608.667C676.757 608.667 675.893 608.76 675.03 608.9C675.963 610.487 676.5 612.307 676.5 614.243V618H687V614.337ZM659 590C662.873 590 666 593.127 666 597C666 600.873 662.873 604 659 604C655.127 604 652 600.873 652 597C652 593.127 655.127 590 659 590Z" fill="black"/>
</g>
<rect width="607" height="367.023" transform="translate(148 120.667)" fill="white"/>
<rect width="522.302" height="282.326" transform="translate(190.349 163.016)" fill="white"/>
<rect x="190.349" y="163.016" width="70.5814" height="282.326" fill="#CACACA"/>
<rect x="280.693" y="163.016" width="70.5814" height="282.326" fill="#CACACA"/>
<rect x="371.037" y="163.016" width="70.5814" height="282.326" fill="#CACACA"/>
<rect x="461.381" y="163.016" width="70.5814" height="282.326" fill="#CACACA"/>
<rect x="551.726" y="163.016" width="70.5814" height="282.326" fill="#CACACA"/>
<rect x="642.07" y="163.016" width="70.5814" height="282.326" fill="#CACACA"/>
<g filter="url(#filter1_d)">
<rect width="135" height="157" transform="translate(543 15)" fill="white"/>
<circle cx="610.5" cy="77.5" r="32.5" fill="#EC4A70"/>
<path d="M581.464 129.848L581.08 132.952H583.304V134.12H580.936L580.584 137H579.448L579.8 134.12H576.776L576.424 137H575.288L575.64 134.12H573.432V132.952H575.784L576.184 129.848H573.944V128.68H576.328L576.68 125.8H577.816L577.464 128.68H580.472L580.824 125.8H581.96L581.608 128.68H583.816V129.848H581.464ZM580.328 129.848H577.32L576.92 132.952H579.944L580.328 129.848ZM594.058 135.608V137H585.93V125.8H593.834V127.192H587.53V130.632H593.146V131.992H587.53V135.608H594.058ZM601.61 137.128C600.49 137.128 599.477 136.883 598.57 136.392C597.674 135.891 596.97 135.208 596.458 134.344C595.946 133.469 595.69 132.488 595.69 131.4C595.69 130.312 595.946 129.336 596.458 128.472C596.97 127.597 597.679 126.915 598.586 126.424C599.493 125.923 600.506 125.672 601.626 125.672C602.501 125.672 603.301 125.821 604.026 126.12C604.751 126.408 605.37 126.84 605.882 127.416L604.842 128.424C603.999 127.539 602.949 127.096 601.69 127.096C600.858 127.096 600.106 127.283 599.434 127.656C598.762 128.029 598.234 128.547 597.85 129.208C597.477 129.859 597.29 130.589 597.29 131.4C597.29 132.211 597.477 132.947 597.85 133.608C598.234 134.259 598.762 134.771 599.434 135.144C600.106 135.517 600.858 135.704 601.69 135.704C602.938 135.704 603.989 135.256 604.842 134.36L605.882 135.368C605.37 135.944 604.746 136.381 604.01 136.68C603.285 136.979 602.485 137.128 601.61 137.128ZM616.575 134.248H614.447V137H612.895V134.248H606.671V133.128L612.399 125.8H614.127L608.639 132.872H612.943V130.44H614.447V132.872H616.575V134.248ZM625.582 134.2H619.63L618.398 137H616.75L621.822 125.8H623.406L628.494 137H626.814L625.582 134.2ZM625.022 132.92L622.606 127.432L620.19 132.92H625.022ZM636.616 125.8V126.888L632.088 137H630.392L634.824 127.192H629.704V129.192H628.168V125.8H636.616ZM642.282 137.128C641.396 137.128 640.607 136.904 639.914 136.456C639.231 135.997 638.692 135.336 638.298 134.472C637.903 133.608 637.706 132.584 637.706 131.4C637.706 130.216 637.903 129.192 638.298 128.328C638.692 127.464 639.231 126.808 639.914 126.36C640.607 125.901 641.396 125.672 642.282 125.672C643.156 125.672 643.935 125.901 644.618 126.36C645.311 126.808 645.855 127.464 646.25 128.328C646.644 129.192 646.842 130.216 646.842 131.4C646.842 132.584 646.644 133.608 646.25 134.472C645.855 135.336 645.311 135.997 644.618 136.456C643.935 136.904 643.156 137.128 642.282 137.128ZM642.282 135.704C643.178 135.704 643.892 135.336 644.426 134.6C644.97 133.864 645.242 132.797 645.242 131.4C645.242 130.003 644.97 128.936 644.426 128.2C643.892 127.464 643.178 127.096 642.282 127.096C641.375 127.096 640.65 127.464 640.106 128.2C639.572 128.936 639.306 130.003 639.306 131.4C639.306 132.797 639.572 133.864 640.106 134.6C640.65 135.336 641.375 135.704 642.282 135.704Z" fill="black"/>
</g>
<g filter="url(#filter2_d)">
<rect width="252" height="118" transform="translate(575 296)" fill="white"/>
<path d="M605 331C605 328.239 607.239 326 610 326H792C794.761 326 797 328.239 797 331V379C797 381.761 794.761 384 792 384H610C607.239 384 605 381.761 605 379V331Z" fill="#003B7C"/>
<path d="M646.52 354.74C647.333 354.967 647.973 355.38 648.44 355.98C648.907 356.567 649.14 357.313 649.14 358.22C649.14 359.433 648.68 360.367 647.76 361.02C646.853 361.673 645.527 362 643.78 362H637.1V348H643.38C644.98 348 646.213 348.32 647.08 348.96C647.96 349.6 648.4 350.487 648.4 351.62C648.4 352.353 648.227 352.987 647.88 353.52C647.547 354.053 647.093 354.46 646.52 354.74ZM639.1 349.62V354.1H643.2C644.227 354.1 645.013 353.913 645.56 353.54C646.12 353.153 646.4 352.593 646.4 351.86C646.4 351.127 646.12 350.573 645.56 350.2C645.013 349.813 644.227 349.62 643.2 349.62H639.1ZM643.7 360.38C644.833 360.38 645.687 360.193 646.26 359.82C646.833 359.447 647.12 358.86 647.12 358.06C647.12 356.5 645.98 355.72 643.7 355.72H639.1V360.38H643.7ZM661.837 351.4V362H660.017V360.4C659.63 360.947 659.117 361.373 658.477 361.68C657.85 361.973 657.163 362.12 656.417 362.12C655.003 362.12 653.89 361.733 653.077 360.96C652.263 360.173 651.857 359.02 651.857 357.5V351.4H653.777V357.28C653.777 358.307 654.023 359.087 654.517 359.62C655.01 360.14 655.717 360.4 656.637 360.4C657.65 360.4 658.45 360.093 659.037 359.48C659.623 358.867 659.917 358 659.917 356.88V351.4H661.837ZM671.452 361.38C671.172 361.62 670.825 361.807 670.412 361.94C669.999 362.06 669.572 362.12 669.132 362.12C668.065 362.12 667.239 361.833 666.652 361.26C666.065 360.687 665.772 359.867 665.772 358.8V352.98H663.972V351.4H665.772V349.08H667.692V351.4H670.732V352.98H667.692V358.72C667.692 359.293 667.832 359.733 668.112 360.04C668.405 360.347 668.819 360.5 669.352 360.5C669.939 360.5 670.439 360.333 670.852 360L671.452 361.38ZM679.479 361.38C679.199 361.62 678.853 361.807 678.439 361.94C678.026 362.06 677.599 362.12 677.159 362.12C676.093 362.12 675.266 361.833 674.679 361.26C674.093 360.687 673.799 359.867 673.799 358.8V352.98H671.999V351.4H673.799V349.08H675.719V351.4H678.759V352.98H675.719V358.72C675.719 359.293 675.859 359.733 676.139 360.04C676.433 360.347 676.846 360.5 677.379 360.5C677.966 360.5 678.466 360.333 678.879 360L679.479 361.38ZM685.989 362.12C684.936 362.12 683.989 361.887 683.149 361.42C682.309 360.953 681.649 360.313 681.169 359.5C680.702 358.673 680.469 357.74 680.469 356.7C680.469 355.66 680.702 354.733 681.169 353.92C681.649 353.093 682.309 352.453 683.149 352C683.989 351.533 684.936 351.3 685.989 351.3C687.042 351.3 687.982 351.533 688.809 352C689.649 352.453 690.302 353.093 690.769 353.92C691.249 354.733 691.489 355.66 691.489 356.7C691.489 357.74 691.249 358.673 690.769 359.5C690.302 360.313 689.649 360.953 688.809 361.42C687.982 361.887 687.042 362.12 685.989 362.12ZM685.989 360.44C686.669 360.44 687.276 360.287 687.809 359.98C688.356 359.66 688.782 359.22 689.089 358.66C689.396 358.087 689.549 357.433 689.549 356.7C689.549 355.967 689.396 355.32 689.089 354.76C688.782 354.187 688.356 353.747 687.809 353.44C687.276 353.133 686.669 352.98 685.989 352.98C685.309 352.98 684.696 353.133 684.149 353.44C683.616 353.747 683.189 354.187 682.869 354.76C682.562 355.32 682.409 355.967 682.409 356.7C682.409 357.433 682.562 358.087 682.869 358.66C683.189 359.22 683.616 359.66 684.149 359.98C684.696 360.287 685.309 360.44 685.989 360.44ZM699.804 351.3C701.151 351.3 702.218 351.693 703.004 352.48C703.804 353.253 704.204 354.393 704.204 355.9V362H702.284V356.12C702.284 355.093 702.038 354.32 701.544 353.8C701.051 353.28 700.344 353.02 699.424 353.02C698.384 353.02 697.564 353.327 696.964 353.94C696.364 354.54 696.064 355.407 696.064 356.54V362H694.144V351.4H695.984V353C696.371 352.453 696.891 352.033 697.544 351.74C698.211 351.447 698.964 351.3 699.804 351.3ZM713.409 348H715.409V360.26H722.989V362H713.409V348ZM728.922 351.3C730.389 351.3 731.509 351.66 732.282 352.38C733.069 353.1 733.462 354.173 733.462 355.6V362H731.642V360.6C731.322 361.093 730.862 361.473 730.262 361.74C729.676 361.993 728.976 362.12 728.162 362.12C726.976 362.12 726.022 361.833 725.302 361.26C724.596 360.687 724.242 359.933 724.242 359C724.242 358.067 724.582 357.32 725.262 356.76C725.942 356.187 727.022 355.9 728.502 355.9H731.542V355.52C731.542 354.693 731.302 354.06 730.822 353.62C730.342 353.18 729.636 352.96 728.702 352.96C728.076 352.96 727.462 353.067 726.862 353.28C726.262 353.48 725.756 353.753 725.342 354.1L724.542 352.66C725.089 352.22 725.742 351.887 726.502 351.66C727.262 351.42 728.069 351.3 728.922 351.3ZM728.482 360.64C729.216 360.64 729.849 360.48 730.382 360.16C730.916 359.827 731.302 359.36 731.542 358.76V357.28H728.582C726.956 357.28 726.142 357.827 726.142 358.92C726.142 359.453 726.349 359.873 726.762 360.18C727.176 360.487 727.749 360.64 728.482 360.64ZM742.635 351.3C743.662 351.3 744.582 351.527 745.395 351.98C746.209 352.433 746.842 353.067 747.295 353.88C747.762 354.693 747.995 355.633 747.995 356.7C747.995 357.767 747.762 358.713 747.295 359.54C746.842 360.353 746.209 360.987 745.395 361.44C744.582 361.893 743.662 362.12 742.635 362.12C741.849 362.12 741.129 361.967 740.475 361.66C739.822 361.353 739.282 360.907 738.855 360.32V362H737.015V347.16H738.935V353C739.362 352.44 739.895 352.02 740.535 351.74C741.175 351.447 741.875 351.3 742.635 351.3ZM742.475 360.44C743.155 360.44 743.762 360.287 744.295 359.98C744.842 359.66 745.269 359.22 745.575 358.66C745.895 358.087 746.055 357.433 746.055 356.7C746.055 355.967 745.895 355.32 745.575 354.76C745.269 354.187 744.842 353.747 744.295 353.44C743.762 353.133 743.155 352.98 742.475 352.98C741.809 352.98 741.202 353.133 740.655 353.44C740.109 353.747 739.682 354.187 739.375 354.76C739.069 355.32 738.915 355.967 738.915 356.7C738.915 357.433 739.069 358.087 739.375 358.66C739.682 359.22 740.109 359.66 740.655 359.98C741.202 360.287 741.809 360.44 742.475 360.44ZM760.228 356.76C760.228 356.907 760.215 357.1 760.188 357.34H751.588C751.708 358.273 752.115 359.027 752.808 359.6C753.515 360.16 754.388 360.44 755.428 360.44C756.695 360.44 757.715 360.013 758.488 359.16L759.548 360.4C759.068 360.96 758.468 361.387 757.748 361.68C757.041 361.973 756.248 362.12 755.368 362.12C754.248 362.12 753.255 361.893 752.388 361.44C751.521 360.973 750.848 360.327 750.368 359.5C749.901 358.673 749.668 357.74 749.668 356.7C749.668 355.673 749.895 354.747 750.348 353.92C750.815 353.093 751.448 352.453 752.248 352C753.061 351.533 753.975 351.3 754.988 351.3C756.001 351.3 756.901 351.533 757.688 352C758.488 352.453 759.108 353.093 759.548 353.92C760.001 354.747 760.228 355.693 760.228 356.76ZM754.988 352.92C754.068 352.92 753.295 353.2 752.668 353.76C752.055 354.32 751.695 355.053 751.588 355.96H758.388C758.281 355.067 757.915 354.34 757.288 353.78C756.675 353.207 755.908 352.92 754.988 352.92ZM762.894 347.16H764.814V362H762.894V347.16Z" fill="#003B7C"/>
</g>
<g clip-path="url(#clip0)" filter="url(#filter3_d)">
<rect width="195" height="80" transform="translate(15 68)" fill="white"/>
<rect x="90" y="68" width="160" height="80" fill="#003B7C"/>
<rect x="-30" y="68" width="120" height="80" fill="#B4DA1C"/>
<path d="M130 108L90 68V148L130 108Z" fill="#B4DA1C"/>
<path d="M78.375 103.1C76.675 94.475 69.1 88 60 88C52.775 88 46.5 92.1 43.375 98.1C35.85 98.9 30 105.275 30 113C30 121.275 36.725 128 45 128H77.5C84.4 128 90 122.4 90 115.5C90 108.9 84.875 103.55 78.375 103.1Z" fill="#3DA6EE"/>
<path d="M176.6 128H150V120H176.6V128ZM188 112H150V104H188V112ZM188 96H150V88H188V96Z" fill="#EF809A"/>
</g>
<defs>
<filter id="filter0_d" x="586" y="531" width="146" height="146" filterUnits="userSpaceOnUse" color-interpolation-filters="sRGB">
<feFlood flood-opacity="0" result="BackgroundImageFix"/>
<feColorMatrix in="SourceAlpha" type="matrix" values="0 0 0 0 0 0 0 0 0 0 0 0 0 0 0 0 0 0 127 0"/>
<feOffset/>
<feGaussianBlur stdDeviation="7.5"/>
<feColorMatrix type="matrix" values="0 0 0 0 0 0 0 0 0 0 0 0 0 0 0 0 0 0 0.15 0"/>
<feBlend mode="normal" in2="BackgroundImageFix" result="effect1_dropShadow"/>
<feBlend mode="normal" in="SourceGraphic" in2="effect1_dropShadow" result="shape"/>
</filter>
<filter id="filter1_d" x="528" y="0" width="165" height="187" filterUnits="userSpaceOnUse" color-interpolation-filters="sRGB">
<feFlood flood-opacity="0" result="BackgroundImageFix"/>
<feColorMatrix in="SourceAlpha" type="matrix" values="0 0 0 0 0 0 0 0 0 0 0 0 0 0 0 0 0 0 127 0"/>
<feOffset/>
<feGaussianBlur stdDeviation="7.5"/>
<feColorMatrix type="matrix" values="0 0 0 0 0 0 0 0 0 0 0 0 0 0 0 0 0 0 0.15 0"/>
<feBlend mode="normal" in2="BackgroundImageFix" result="effect1_dropShadow"/>
<feBlend mode="normal" in="SourceGraphic" in2="effect1_dropShadow" result="shape"/>
</filter>
<filter id="filter2_d" x="560" y="281" width="282" height="148" filterUnits="userSpaceOnUse" color-interpolation-filters="sRGB">
<feFlood flood-opacity="0" result="BackgroundImageFix"/>
<feColorMatrix in="SourceAlpha" type="matrix" values="0 0 0 0 0 0 0 0 0 0 0 0 0 0 0 0 0 0 127 0"/>
<feOffset/>
<feGaussianBlur stdDeviation="7.5"/>
<feColorMatrix type="matrix" values="0 0 0 0 0 0 0 0 0 0 0 0 0 0 0 0 0 0 0.15 0"/>
<feBlend mode="normal" in2="BackgroundImageFix" result="effect1_dropShadow"/>
<feBlend mode="normal" in="SourceGraphic" in2="effect1_dropShadow" result="shape"/>
</filter>
<filter id="filter3_d" x="0" y="53" width="225" height="110" filterUnits="userSpaceOnUse" color-interpolation-filters="sRGB">
<feFlood flood-opacity="0" result="BackgroundImageFix"/>
<feColorMatrix in="SourceAlpha" type="matrix" values="0 0 0 0 0 0 0 0 0 0 0 0 0 0 0 0 0 0 127 0"/>
<feOffset/>
<feGaussianBlur stdDeviation="7.5"/>
<feColorMatrix type="matrix" values="0 0 0 0 0 0 0 0 0 0 0 0 0 0 0 0 0 0 0.15 0"/>
<feBlend mode="normal" in2="BackgroundImageFix" result="effect1_dropShadow"/>
<feBlend mode="normal" in="SourceGraphic" in2="effect1_dropShadow" result="shape"/>
</filter>
<clipPath id="clip0">
<rect width="195" height="80" fill="white" transform="translate(15 68)"/>
</clipPath>
</defs>
</svg>
