<svg width="144" height="99" viewBox="0 0 144 99" fill="none" xmlns="http://www.w3.org/2000/svg">
<rect width="143.211" height="98.1" fill="white"/>
<path d="M67.975 40.3L62.25 57.8H57.9L54.05 45.95L50.075 57.8H45.75L40 40.3H44.2L48.15 52.6L52.275 40.3H56.025L60.025 52.7L64.1 40.3H67.975Z" fill="#003B7C"/>
<path d="M70.2359 40.3H74.2859V54.5H83.0609V57.8H70.2359V40.3Z" fill="#003B7C"/>
<path d="M93.6359 58.1C91.8193 58.1 90.1776 57.7083 88.7109 56.925C87.2609 56.1417 86.1193 55.0667 85.2859 53.7C84.4693 52.3167 84.0609 50.7667 84.0609 49.05C84.0609 47.3333 84.4693 45.7917 85.2859 44.425C86.1193 43.0417 87.2609 41.9583 88.7109 41.175C90.1776 40.3917 91.8193 40 93.6359 40C95.4526 40 97.0859 40.3917 98.5359 41.175C99.9859 41.9583 101.128 43.0417 101.961 44.425C102.794 45.7917 103.211 47.3333 103.211 49.05C103.211 50.7667 102.794 52.3167 101.961 53.7C101.128 55.0667 99.9859 56.1417 98.5359 56.925C97.0859 57.7083 95.4526 58.1 93.6359 58.1ZM93.6359 54.65C94.6693 54.65 95.6026 54.4167 96.4359 53.95C97.2693 53.4667 97.9193 52.8 98.3859 51.95C98.8693 51.1 99.1109 50.1333 99.1109 49.05C99.1109 47.9667 98.8693 47 98.3859 46.15C97.9193 45.3 97.2693 44.6417 96.4359 44.175C95.6026 43.6917 94.6693 43.45 93.6359 43.45C92.6026 43.45 91.6693 43.6917 90.8359 44.175C90.0026 44.6417 89.3443 45.3 88.8609 46.15C88.3943 47 88.1609 47.9667 88.1609 49.05C88.1609 50.1333 88.3943 51.1 88.8609 51.95C89.3443 52.8 90.0026 53.4667 90.8359 53.95C91.6693 54.4167 92.6026 54.65 93.6359 54.65Z" fill="#EC4A70"/>
</svg>
