<svg width="305" height="100" viewBox="0 0 305 100" fill="none" xmlns="http://www.w3.org/2000/svg">
<rect width="304.554" height="99.975" fill="white"/>
<path d="M67.975 42.225L62.25 59.725H57.9L54.05 47.875L50.075 59.725H45.75L40 42.225H44.2L48.15 54.525L52.275 42.225H56.025L60.025 54.625L64.1 42.225H67.975Z" fill="#003B7C"/>
<path d="M70.2051 46.275H74.1051V59.725H70.2051V46.275ZM72.1551 44.4C71.4384 44.4 70.8551 44.1917 70.4051 43.775C69.9551 43.3583 69.7301 42.8417 69.7301 42.225C69.7301 41.6083 69.9551 41.0917 70.4051 40.675C70.8551 40.2583 71.4384 40.05 72.1551 40.05C72.8717 40.05 73.4551 40.25 73.9051 40.65C74.3551 41.05 74.5801 41.55 74.5801 42.15C74.5801 42.8 74.3551 43.3417 73.9051 43.775C73.4551 44.1917 72.8717 44.4 72.1551 44.4Z" fill="#003B7C"/>
<path d="M81.4496 48.05C81.9163 47.4 82.5413 46.9083 83.3246 46.575C84.1246 46.2417 85.0413 46.075 86.0746 46.075V49.675C85.6413 49.6417 85.3496 49.625 85.1996 49.625C84.0829 49.625 83.2079 49.9417 82.5746 50.575C81.9413 51.1917 81.6246 52.125 81.6246 53.375V59.725H77.7246V46.275H81.4496V48.05Z" fill="#003B7C"/>
<path d="M88.5953 42.225H92.6453V56.425H101.42V59.725H88.5953V42.225Z" fill="#003B7C"/>
<path d="M116.486 53.05C116.486 53.1 116.461 53.45 116.411 54.1H106.236C106.419 54.9333 106.852 55.5917 107.536 56.075C108.219 56.5583 109.069 56.8 110.086 56.8C110.786 56.8 111.402 56.7 111.936 56.5C112.486 56.2833 112.994 55.95 113.461 55.5L115.536 57.75C114.269 59.2 112.419 59.925 109.986 59.925C108.469 59.925 107.127 59.6333 105.961 59.05C104.794 58.45 103.894 57.625 103.261 56.575C102.627 55.525 102.311 54.3333 102.311 53C102.311 51.6833 102.619 50.5 103.236 49.45C103.869 48.3833 104.727 47.5583 105.811 46.975C106.911 46.375 108.136 46.075 109.486 46.075C110.802 46.075 111.994 46.3583 113.061 46.925C114.127 47.4917 114.961 48.3083 115.561 49.375C116.177 50.425 116.486 51.65 116.486 53.05ZM109.511 49.025C108.627 49.025 107.886 49.275 107.286 49.775C106.686 50.275 106.319 50.9583 106.186 51.825H112.811C112.677 50.975 112.311 50.3 111.711 49.8C111.111 49.2833 110.377 49.025 109.511 49.025Z" fill="#003B7C"/>
<path d="M122.807 48.05C123.274 47.4 123.899 46.9083 124.682 46.575C125.482 46.2417 126.399 46.075 127.432 46.075V49.675C126.999 49.6417 126.707 49.625 126.557 49.625C125.44 49.625 124.565 49.9417 123.932 50.575C123.299 51.1917 122.982 52.125 122.982 53.375V59.725H119.082V46.275H122.807V48.05Z" fill="#003B7C"/>
<path d="M137.926 46.075C139.593 46.075 140.934 46.575 141.951 47.575C142.984 48.575 143.501 50.0583 143.501 52.025V59.725H139.601V52.625C139.601 51.5583 139.368 50.7667 138.901 50.25C138.434 49.7167 137.759 49.45 136.876 49.45C135.893 49.45 135.109 49.7583 134.526 50.375C133.943 50.975 133.651 51.875 133.651 53.075V59.725H129.751V46.275H133.476V47.85C133.993 47.2833 134.634 46.85 135.401 46.55C136.168 46.2333 137.009 46.075 137.926 46.075Z" fill="#003B7C"/>
<path d="M160.358 53.05C160.358 53.1 160.333 53.45 160.283 54.1H150.108C150.291 54.9333 150.724 55.5917 151.408 56.075C152.091 56.5583 152.941 56.8 153.958 56.8C154.658 56.8 155.274 56.7 155.808 56.5C156.358 56.2833 156.866 55.95 157.333 55.5L159.408 57.75C158.141 59.2 156.291 59.925 153.858 59.925C152.341 59.925 150.999 59.6333 149.833 59.05C148.666 58.45 147.766 57.625 147.133 56.575C146.499 55.525 146.183 54.3333 146.183 53C146.183 51.6833 146.491 50.5 147.108 49.45C147.741 48.3833 148.599 47.5583 149.683 46.975C150.783 46.375 152.008 46.075 153.358 46.075C154.674 46.075 155.866 46.3583 156.933 46.925C157.999 47.4917 158.833 48.3083 159.433 49.375C160.049 50.425 160.358 51.65 160.358 53.05ZM153.383 49.025C152.499 49.025 151.758 49.275 151.158 49.775C150.558 50.275 150.191 50.9583 150.058 51.825H156.683C156.549 50.975 156.183 50.3 155.583 49.8C154.983 49.2833 154.249 49.025 153.383 49.025Z" fill="#003B7C"/>
<path d="M171.129 46.075C172.796 46.075 174.137 46.575 175.154 47.575C176.187 48.575 176.704 50.0583 176.704 52.025V59.725H172.804V52.625C172.804 51.5583 172.571 50.7667 172.104 50.25C171.637 49.7167 170.962 49.45 170.079 49.45C169.096 49.45 168.312 49.7583 167.729 50.375C167.146 50.975 166.854 51.875 166.854 53.075V59.725H162.954V46.275H166.679V47.85C167.196 47.2833 167.837 46.85 168.604 46.55C169.371 46.2333 170.212 46.075 171.129 46.075Z" fill="#003B7C"/>
<path d="M189.279 59.975C187.462 59.975 185.821 59.5833 184.354 58.8C182.904 58.0167 181.762 56.9417 180.929 55.575C180.112 54.1917 179.704 52.6417 179.704 50.925C179.704 49.2083 180.112 47.6667 180.929 46.3C181.762 44.9167 182.904 43.8333 184.354 43.05C185.821 42.2667 187.462 41.875 189.279 41.875C191.096 41.875 192.729 42.2667 194.179 43.05C195.629 43.8333 196.771 44.9167 197.604 46.3C198.437 47.6667 198.854 49.2083 198.854 50.925C198.854 52.6417 198.437 54.1917 197.604 55.575C196.771 56.9417 195.629 58.0167 194.179 58.8C192.729 59.5833 191.096 59.975 189.279 59.975ZM189.279 56.525C190.312 56.525 191.246 56.2917 192.079 55.825C192.912 55.3417 193.562 54.675 194.029 53.825C194.512 52.975 194.754 52.0083 194.754 50.925C194.754 49.8417 194.512 48.875 194.029 48.025C193.562 47.175 192.912 46.5167 192.079 46.05C191.246 45.5667 190.312 45.325 189.279 45.325C188.246 45.325 187.312 45.5667 186.479 46.05C185.646 46.5167 184.987 47.175 184.504 48.025C184.037 48.875 183.804 49.8417 183.804 50.925C183.804 52.0083 184.037 52.975 184.504 53.825C184.987 54.675 185.646 55.3417 186.479 55.825C187.312 56.2917 188.246 56.525 189.279 56.525Z" fill="#EC4A70"/>
<path d="M209.798 46.025C211.465 46.025 212.806 46.525 213.823 47.525C214.856 48.525 215.373 50.0083 215.373 51.975V59.675H211.473V52.575C211.473 51.5083 211.24 50.7167 210.773 50.2C210.306 49.6667 209.631 49.4 208.748 49.4C207.765 49.4 206.981 49.7083 206.398 50.325C205.815 50.925 205.523 51.825 205.523 53.025V59.675H201.623V46.225H205.348V47.8C205.865 47.2333 206.506 46.8 207.273 46.5C208.04 46.1833 208.881 46.025 209.798 46.025Z" fill="#EC4A70"/>
<path d="M218.908 41.125H222.808V59.675H218.908V41.125Z" fill="#EC4A70"/>
<path d="M226.428 46.225H230.328V59.675H226.428V46.225ZM228.378 44.35C227.661 44.35 227.078 44.1417 226.628 43.725C226.178 43.3083 225.953 42.7917 225.953 42.175C225.953 41.5583 226.178 41.0417 226.628 40.625C227.078 40.2083 227.661 40 228.378 40C229.094 40 229.678 40.2 230.128 40.6C230.578 41 230.803 41.5 230.803 42.1C230.803 42.75 230.578 43.2917 230.128 43.725C229.678 44.1417 229.094 44.35 228.378 44.35Z" fill="#EC4A70"/>
<path d="M242.122 46.025C243.789 46.025 245.13 46.525 246.147 47.525C247.18 48.525 247.697 50.0083 247.697 51.975V59.675H243.797V52.575C243.797 51.5083 243.564 50.7167 243.097 50.2C242.63 49.6667 241.955 49.4 241.072 49.4C240.089 49.4 239.305 49.7083 238.722 50.325C238.139 50.925 237.847 51.825 237.847 53.025V59.675H233.947V46.225H237.672V47.8C238.189 47.2333 238.83 46.8 239.597 46.5C240.364 46.1833 241.205 46.025 242.122 46.025Z" fill="#EC4A70"/>
<path d="M264.554 53C264.554 53.05 264.529 53.4 264.479 54.05H254.304C254.487 54.8833 254.92 55.5417 255.604 56.025C256.287 56.5083 257.137 56.75 258.154 56.75C258.854 56.75 259.47 56.65 260.004 56.45C260.554 56.2333 261.062 55.9 261.529 55.45L263.604 57.7C262.337 59.15 260.487 59.875 258.054 59.875C256.537 59.875 255.195 59.5833 254.029 59C252.862 58.4 251.962 57.575 251.329 56.525C250.695 55.475 250.379 54.2833 250.379 52.95C250.379 51.6333 250.687 50.45 251.304 49.4C251.937 48.3333 252.795 47.5083 253.879 46.925C254.979 46.325 256.204 46.025 257.554 46.025C258.87 46.025 260.062 46.3083 261.129 46.875C262.195 47.4417 263.029 48.2583 263.629 49.325C264.245 50.375 264.554 51.6 264.554 53ZM257.579 48.975C256.695 48.975 255.954 49.225 255.354 49.725C254.754 50.225 254.387 50.9083 254.254 51.775H260.879C260.745 50.925 260.379 50.25 259.779 49.75C259.179 49.2333 258.445 48.975 257.579 48.975Z" fill="#EC4A70"/>
</svg>
